ISO-10303-21;
HEADER;
/* Generated by software containing ST-Developer
 * from STEP Tools, Inc. (www.steptools.com) 
 */

FILE_DESCRIPTION(
/* description */ (''),
/* implementation_level */ '2;1');

FILE_NAME(
/* name */ 'STX883Pro.step',
/* time_stamp */ '2025-08-29T19:05:01-04:00',
/* author */ (''),
/* organization */ (''),
/* preprocessor_version */ 'ST-DEVELOPER v20.1',
/* originating_system */ 'Autodesk Translation Framework v14.10.0.0',
/* authorisation */ '');

FILE_SCHEMA (('AUTOMOTIVE_DESIGN { 1 0 10303 214 3 1 1 }'));
ENDSEC;

DATA;
#10=MECHANICAL_DESIGN_GEOMETRIC_PRESENTATION_REPRESENTATION('',(#73,#74,
#75,#76,#77,#78),#2330);
#11=SHAPE_REPRESENTATION_RELATIONSHIP('SRR','None',#2337,#12);
#12=ADVANCED_BREP_SHAPE_REPRESENTATION('',(#79,#80,#81,#82,#83,#84),#2329);
#13=SPHERICAL_SURFACE('',#1510,0.1);
#14=SPHERICAL_SURFACE('',#1516,0.1);
#15=SPHERICAL_SURFACE('',#1522,0.1);
#16=SPHERICAL_SURFACE('',#1529,0.1);
#17=FACE_BOUND('',#199,.T.);
#18=FACE_BOUND('',#201,.T.);
#19=FACE_BOUND('',#210,.T.);
#20=FACE_BOUND('',#212,.T.);
#21=FACE_BOUND('',#221,.T.);
#22=FACE_BOUND('',#223,.T.);
#23=FACE_BOUND('',#232,.T.);
#24=FACE_BOUND('',#234,.T.);
#25=CIRCLE('',#1462,0.375);
#26=CIRCLE('',#1463,0.375);
#27=CIRCLE('',#1466,0.375);
#28=CIRCLE('',#1467,0.375);
#29=CIRCLE('',#1475,0.375);
#30=CIRCLE('',#1476,0.375);
#31=CIRCLE('',#1479,0.375);
#32=CIRCLE('',#1480,0.375);
#33=CIRCLE('',#1488,0.375);
#34=CIRCLE('',#1489,0.375);
#35=CIRCLE('',#1492,0.375);
#36=CIRCLE('',#1493,0.375);
#37=CIRCLE('',#1501,0.375000000000001);
#38=CIRCLE('',#1502,0.375000000000001);
#39=CIRCLE('',#1505,0.375000000000001);
#40=CIRCLE('',#1506,0.375000000000001);
#41=CIRCLE('',#1511,0.1);
#42=CIRCLE('',#1512,0.1);
#43=CIRCLE('',#1513,0.1);
#44=CIRCLE('',#1515,0.1);
#45=CIRCLE('',#1517,0.1);
#46=CIRCLE('',#1518,0.1);
#47=CIRCLE('',#1519,0.1);
#48=CIRCLE('',#1521,0.1);
#49=CIRCLE('',#1523,0.1);
#50=CIRCLE('',#1524,0.1);
#51=CIRCLE('',#1525,0.1);
#52=CIRCLE('',#1527,0.1);
#53=CIRCLE('',#1530,0.1);
#54=CIRCLE('',#1531,0.1);
#55=CIRCLE('',#1532,0.1);
#56=CIRCLE('',#1534,0.1);
#57=CYLINDRICAL_SURFACE('',#1461,0.375);
#58=CYLINDRICAL_SURFACE('',#1465,0.375);
#59=CYLINDRICAL_SURFACE('',#1474,0.375);
#60=CYLINDRICAL_SURFACE('',#1478,0.375);
#61=CYLINDRICAL_SURFACE('',#1487,0.375);
#62=CYLINDRICAL_SURFACE('',#1491,0.375);
#63=CYLINDRICAL_SURFACE('',#1500,0.375000000000001);
#64=CYLINDRICAL_SURFACE('',#1504,0.375000000000001);
#65=CYLINDRICAL_SURFACE('',#1514,0.1);
#66=CYLINDRICAL_SURFACE('',#1520,0.1);
#67=CYLINDRICAL_SURFACE('',#1526,0.1);
#68=CYLINDRICAL_SURFACE('',#1528,0.1);
#69=CYLINDRICAL_SURFACE('',#1533,0.1);
#70=CYLINDRICAL_SURFACE('',#1535,0.1);
#71=CYLINDRICAL_SURFACE('',#1536,0.1);
#72=CYLINDRICAL_SURFACE('',#1537,0.1);
#73=STYLED_ITEM('',(#2347),#79);
#74=STYLED_ITEM('',(#2348),#80);
#75=STYLED_ITEM('',(#2348),#81);
#76=STYLED_ITEM('',(#2348),#82);
#77=STYLED_ITEM('',(#2348),#83);
#78=STYLED_ITEM('',(#2349),#84);
#79=MANIFOLD_SOLID_BREP('Body1',#1413);
#80=MANIFOLD_SOLID_BREP('Body2',#1414);
#81=MANIFOLD_SOLID_BREP('Body3',#1415);
#82=MANIFOLD_SOLID_BREP('Body4',#1416);
#83=MANIFOLD_SOLID_BREP('Body5',#1417);
#84=MANIFOLD_SOLID_BREP('Body6',#1418);
#85=FACE_OUTER_BOUND('',#165,.T.);
#86=FACE_OUTER_BOUND('',#166,.T.);
#87=FACE_OUTER_BOUND('',#167,.T.);
#88=FACE_OUTER_BOUND('',#168,.T.);
#89=FACE_OUTER_BOUND('',#169,.T.);
#90=FACE_OUTER_BOUND('',#170,.T.);
#91=FACE_OUTER_BOUND('',#171,.T.);
#92=FACE_OUTER_BOUND('',#172,.T.);
#93=FACE_OUTER_BOUND('',#173,.T.);
#94=FACE_OUTER_BOUND('',#174,.T.);
#95=FACE_OUTER_BOUND('',#175,.T.);
#96=FACE_OUTER_BOUND('',#176,.T.);
#97=FACE_OUTER_BOUND('',#177,.T.);
#98=FACE_OUTER_BOUND('',#178,.T.);
#99=FACE_OUTER_BOUND('',#179,.T.);
#100=FACE_OUTER_BOUND('',#180,.T.);
#101=FACE_OUTER_BOUND('',#181,.T.);
#102=FACE_OUTER_BOUND('',#182,.T.);
#103=FACE_OUTER_BOUND('',#183,.T.);
#104=FACE_OUTER_BOUND('',#184,.T.);
#105=FACE_OUTER_BOUND('',#185,.T.);
#106=FACE_OUTER_BOUND('',#186,.T.);
#107=FACE_OUTER_BOUND('',#187,.T.);
#108=FACE_OUTER_BOUND('',#188,.T.);
#109=FACE_OUTER_BOUND('',#189,.T.);
#110=FACE_OUTER_BOUND('',#190,.T.);
#111=FACE_OUTER_BOUND('',#191,.T.);
#112=FACE_OUTER_BOUND('',#192,.T.);
#113=FACE_OUTER_BOUND('',#193,.T.);
#114=FACE_OUTER_BOUND('',#194,.T.);
#115=FACE_OUTER_BOUND('',#195,.T.);
#116=FACE_OUTER_BOUND('',#196,.T.);
#117=FACE_OUTER_BOUND('',#197,.T.);
#118=FACE_OUTER_BOUND('',#198,.T.);
#119=FACE_OUTER_BOUND('',#200,.T.);
#120=FACE_OUTER_BOUND('',#202,.T.);
#121=FACE_OUTER_BOUND('',#203,.T.);
#122=FACE_OUTER_BOUND('',#204,.T.);
#123=FACE_OUTER_BOUND('',#205,.T.);
#124=FACE_OUTER_BOUND('',#206,.T.);
#125=FACE_OUTER_BOUND('',#207,.T.);
#126=FACE_OUTER_BOUND('',#208,.T.);
#127=FACE_OUTER_BOUND('',#209,.T.);
#128=FACE_OUTER_BOUND('',#211,.T.);
#129=FACE_OUTER_BOUND('',#213,.T.);
#130=FACE_OUTER_BOUND('',#214,.T.);
#131=FACE_OUTER_BOUND('',#215,.T.);
#132=FACE_OUTER_BOUND('',#216,.T.);
#133=FACE_OUTER_BOUND('',#217,.T.);
#134=FACE_OUTER_BOUND('',#218,.T.);
#135=FACE_OUTER_BOUND('',#219,.T.);
#136=FACE_OUTER_BOUND('',#220,.T.);
#137=FACE_OUTER_BOUND('',#222,.T.);
#138=FACE_OUTER_BOUND('',#224,.T.);
#139=FACE_OUTER_BOUND('',#225,.T.);
#140=FACE_OUTER_BOUND('',#226,.T.);
#141=FACE_OUTER_BOUND('',#227,.T.);
#142=FACE_OUTER_BOUND('',#228,.T.);
#143=FACE_OUTER_BOUND('',#229,.T.);
#144=FACE_OUTER_BOUND('',#230,.T.);
#145=FACE_OUTER_BOUND('',#231,.T.);
#146=FACE_OUTER_BOUND('',#233,.T.);
#147=FACE_OUTER_BOUND('',#235,.T.);
#148=FACE_OUTER_BOUND('',#236,.T.);
#149=FACE_OUTER_BOUND('',#237,.T.);
#150=FACE_OUTER_BOUND('',#238,.T.);
#151=FACE_OUTER_BOUND('',#239,.T.);
#152=FACE_OUTER_BOUND('',#240,.T.);
#153=FACE_OUTER_BOUND('',#241,.T.);
#154=FACE_OUTER_BOUND('',#242,.T.);
#155=FACE_OUTER_BOUND('',#243,.T.);
#156=FACE_OUTER_BOUND('',#244,.T.);
#157=FACE_OUTER_BOUND('',#245,.T.);
#158=FACE_OUTER_BOUND('',#246,.T.);
#159=FACE_OUTER_BOUND('',#247,.T.);
#160=FACE_OUTER_BOUND('',#248,.T.);
#161=FACE_OUTER_BOUND('',#249,.T.);
#162=FACE_OUTER_BOUND('',#250,.T.);
#163=FACE_OUTER_BOUND('',#251,.T.);
#164=FACE_OUTER_BOUND('',#252,.T.);
#165=EDGE_LOOP('',(#889,#890,#891,#892));
#166=EDGE_LOOP('',(#893,#894,#895,#896));
#167=EDGE_LOOP('',(#897,#898,#899,#900));
#168=EDGE_LOOP('',(#901,#902,#903,#904));
#169=EDGE_LOOP('',(#905,#906,#907,#908));
#170=EDGE_LOOP('',(#909,#910,#911,#912));
#171=EDGE_LOOP('',(#913,#914,#915,#916));
#172=EDGE_LOOP('',(#917,#918,#919,#920));
#173=EDGE_LOOP('',(#921,#922,#923,#924));
#174=EDGE_LOOP('',(#925,#926,#927,#928));
#175=EDGE_LOOP('',(#929,#930,#931,#932));
#176=EDGE_LOOP('',(#933,#934,#935,#936));
#177=EDGE_LOOP('',(#937,#938,#939,#940));
#178=EDGE_LOOP('',(#941,#942,#943,#944));
#179=EDGE_LOOP('',(#945,#946,#947,#948));
#180=EDGE_LOOP('',(#949,#950,#951,#952));
#181=EDGE_LOOP('',(#953,#954,#955,#956));
#182=EDGE_LOOP('',(#957,#958,#959,#960));
#183=EDGE_LOOP('',(#961,#962,#963,#964));
#184=EDGE_LOOP('',(#965,#966,#967,#968));
#185=EDGE_LOOP('',(#969,#970,#971,#972));
#186=EDGE_LOOP('',(#973,#974,#975,#976));
#187=EDGE_LOOP('',(#977,#978,#979,#980));
#188=EDGE_LOOP('',(#981,#982,#983,#984));
#189=EDGE_LOOP('',(#985,#986,#987,#988,#989,#990,#991,#992,#993,#994,#995,
#996,#997,#998,#999,#1000,#1001,#1002,#1003,#1004,#1005,#1006,#1007,#1008));
#190=EDGE_LOOP('',(#1009,#1010,#1011,#1012,#1013,#1014,#1015,#1016,#1017,
#1018,#1019,#1020,#1021,#1022,#1023,#1024,#1025,#1026,#1027,#1028,#1029,
#1030,#1031,#1032));
#191=EDGE_LOOP('',(#1033,#1034,#1035,#1036));
#192=EDGE_LOOP('',(#1037,#1038,#1039,#1040));
#193=EDGE_LOOP('',(#1041,#1042,#1043,#1044));
#194=EDGE_LOOP('',(#1045,#1046,#1047,#1048));
#195=EDGE_LOOP('',(#1049,#1050,#1051,#1052));
#196=EDGE_LOOP('',(#1053,#1054,#1055,#1056));
#197=EDGE_LOOP('',(#1057,#1058,#1059,#1060));
#198=EDGE_LOOP('',(#1061,#1062,#1063,#1064,#1065,#1066));
#199=EDGE_LOOP('',(#1067));
#200=EDGE_LOOP('',(#1068,#1069,#1070,#1071,#1072,#1073));
#201=EDGE_LOOP('',(#1074));
#202=EDGE_LOOP('',(#1075,#1076,#1077,#1078));
#203=EDGE_LOOP('',(#1079,#1080,#1081,#1082));
#204=EDGE_LOOP('',(#1083,#1084,#1085,#1086));
#205=EDGE_LOOP('',(#1087,#1088,#1089,#1090));
#206=EDGE_LOOP('',(#1091,#1092,#1093,#1094));
#207=EDGE_LOOP('',(#1095,#1096,#1097,#1098));
#208=EDGE_LOOP('',(#1099,#1100,#1101,#1102));
#209=EDGE_LOOP('',(#1103,#1104,#1105,#1106,#1107,#1108));
#210=EDGE_LOOP('',(#1109));
#211=EDGE_LOOP('',(#1110,#1111,#1112,#1113,#1114,#1115));
#212=EDGE_LOOP('',(#1116));
#213=EDGE_LOOP('',(#1117,#1118,#1119,#1120));
#214=EDGE_LOOP('',(#1121,#1122,#1123,#1124));
#215=EDGE_LOOP('',(#1125,#1126,#1127,#1128));
#216=EDGE_LOOP('',(#1129,#1130,#1131,#1132));
#217=EDGE_LOOP('',(#1133,#1134,#1135,#1136));
#218=EDGE_LOOP('',(#1137,#1138,#1139,#1140));
#219=EDGE_LOOP('',(#1141,#1142,#1143,#1144));
#220=EDGE_LOOP('',(#1145,#1146,#1147,#1148,#1149,#1150));
#221=EDGE_LOOP('',(#1151));
#222=EDGE_LOOP('',(#1152,#1153,#1154,#1155,#1156,#1157));
#223=EDGE_LOOP('',(#1158));
#224=EDGE_LOOP('',(#1159,#1160,#1161,#1162));
#225=EDGE_LOOP('',(#1163,#1164,#1165,#1166));
#226=EDGE_LOOP('',(#1167,#1168,#1169,#1170));
#227=EDGE_LOOP('',(#1171,#1172,#1173,#1174));
#228=EDGE_LOOP('',(#1175,#1176,#1177,#1178));
#229=EDGE_LOOP('',(#1179,#1180,#1181,#1182));
#230=EDGE_LOOP('',(#1183,#1184,#1185,#1186));
#231=EDGE_LOOP('',(#1187,#1188,#1189,#1190,#1191,#1192));
#232=EDGE_LOOP('',(#1193));
#233=EDGE_LOOP('',(#1194,#1195,#1196,#1197,#1198,#1199));
#234=EDGE_LOOP('',(#1200));
#235=EDGE_LOOP('',(#1201,#1202,#1203));
#236=EDGE_LOOP('',(#1204,#1205,#1206,#1207));
#237=EDGE_LOOP('',(#1208,#1209,#1210));
#238=EDGE_LOOP('',(#1211,#1212,#1213,#1214));
#239=EDGE_LOOP('',(#1215,#1216,#1217));
#240=EDGE_LOOP('',(#1218,#1219,#1220,#1221));
#241=EDGE_LOOP('',(#1222,#1223,#1224,#1225));
#242=EDGE_LOOP('',(#1226,#1227,#1228));
#243=EDGE_LOOP('',(#1229,#1230,#1231,#1232));
#244=EDGE_LOOP('',(#1233,#1234,#1235,#1236));
#245=EDGE_LOOP('',(#1237,#1238,#1239,#1240));
#246=EDGE_LOOP('',(#1241,#1242,#1243,#1244));
#247=EDGE_LOOP('',(#1245,#1246,#1247,#1248));
#248=EDGE_LOOP('',(#1249,#1250,#1251,#1252));
#249=EDGE_LOOP('',(#1253,#1254,#1255,#1256));
#250=EDGE_LOOP('',(#1257,#1258,#1259,#1260));
#251=EDGE_LOOP('',(#1261,#1262,#1263,#1264));
#252=EDGE_LOOP('',(#1265,#1266,#1267,#1268,#1269,#1270,#1271,#1272));
#253=LINE('',#1934,#413);
#254=LINE('',#1936,#414);
#255=LINE('',#1938,#415);
#256=LINE('',#1939,#416);
#257=LINE('',#1942,#417);
#258=LINE('',#1944,#418);
#259=LINE('',#1945,#419);
#260=LINE('',#1948,#420);
#261=LINE('',#1950,#421);
#262=LINE('',#1951,#422);
#263=LINE('',#1954,#423);
#264=LINE('',#1956,#424);
#265=LINE('',#1957,#425);
#266=LINE('',#1960,#426);
#267=LINE('',#1962,#427);
#268=LINE('',#1963,#428);
#269=LINE('',#1966,#429);
#270=LINE('',#1968,#430);
#271=LINE('',#1969,#431);
#272=LINE('',#1972,#432);
#273=LINE('',#1974,#433);
#274=LINE('',#1975,#434);
#275=LINE('',#1978,#435);
#276=LINE('',#1980,#436);
#277=LINE('',#1981,#437);
#278=LINE('',#1984,#438);
#279=LINE('',#1986,#439);
#280=LINE('',#1987,#440);
#281=LINE('',#1990,#441);
#282=LINE('',#1992,#442);
#283=LINE('',#1993,#443);
#284=LINE('',#1996,#444);
#285=LINE('',#1998,#445);
#286=LINE('',#1999,#446);
#287=LINE('',#2002,#447);
#288=LINE('',#2004,#448);
#289=LINE('',#2005,#449);
#290=LINE('',#2008,#450);
#291=LINE('',#2010,#451);
#292=LINE('',#2011,#452);
#293=LINE('',#2014,#453);
#294=LINE('',#2016,#454);
#295=LINE('',#2017,#455);
#296=LINE('',#2020,#456);
#297=LINE('',#2022,#457);
#298=LINE('',#2023,#458);
#299=LINE('',#2026,#459);
#300=LINE('',#2028,#460);
#301=LINE('',#2029,#461);
#302=LINE('',#2032,#462);
#303=LINE('',#2034,#463);
#304=LINE('',#2035,#464);
#305=LINE('',#2038,#465);
#306=LINE('',#2040,#466);
#307=LINE('',#2041,#467);
#308=LINE('',#2044,#468);
#309=LINE('',#2046,#469);
#310=LINE('',#2047,#470);
#311=LINE('',#2050,#471);
#312=LINE('',#2052,#472);
#313=LINE('',#2053,#473);
#314=LINE('',#2056,#474);
#315=LINE('',#2058,#475);
#316=LINE('',#2059,#476);
#317=LINE('',#2062,#477);
#318=LINE('',#2064,#478);
#319=LINE('',#2065,#479);
#320=LINE('',#2068,#480);
#321=LINE('',#2070,#481);
#322=LINE('',#2071,#482);
#323=LINE('',#2073,#483);
#324=LINE('',#2074,#484);
#325=LINE('',#2080,#485);
#326=LINE('',#2082,#486);
#327=LINE('',#2084,#487);
#328=LINE('',#2085,#488);
#329=LINE('',#2088,#489);
#330=LINE('',#2090,#490);
#331=LINE('',#2091,#491);
#332=LINE('',#2094,#492);
#333=LINE('',#2096,#493);
#334=LINE('',#2097,#494);
#335=LINE('',#2102,#495);
#336=LINE('',#2106,#496);
#337=LINE('',#2108,#497);
#338=LINE('',#2109,#498);
#339=LINE('',#2114,#499);
#340=LINE('',#2117,#500);
#341=LINE('',#2118,#501);
#342=LINE('',#2124,#502);
#343=LINE('',#2126,#503);
#344=LINE('',#2128,#504);
#345=LINE('',#2129,#505);
#346=LINE('',#2132,#506);
#347=LINE('',#2134,#507);
#348=LINE('',#2135,#508);
#349=LINE('',#2138,#509);
#350=LINE('',#2140,#510);
#351=LINE('',#2141,#511);
#352=LINE('',#2146,#512);
#353=LINE('',#2150,#513);
#354=LINE('',#2152,#514);
#355=LINE('',#2153,#515);
#356=LINE('',#2158,#516);
#357=LINE('',#2161,#517);
#358=LINE('',#2162,#518);
#359=LINE('',#2168,#519);
#360=LINE('',#2170,#520);
#361=LINE('',#2172,#521);
#362=LINE('',#2173,#522);
#363=LINE('',#2176,#523);
#364=LINE('',#2178,#524);
#365=LINE('',#2179,#525);
#366=LINE('',#2182,#526);
#367=LINE('',#2184,#527);
#368=LINE('',#2185,#528);
#369=LINE('',#2190,#529);
#370=LINE('',#2194,#530);
#371=LINE('',#2196,#531);
#372=LINE('',#2197,#532);
#373=LINE('',#2202,#533);
#374=LINE('',#2205,#534);
#375=LINE('',#2206,#535);
#376=LINE('',#2212,#536);
#377=LINE('',#2214,#537);
#378=LINE('',#2216,#538);
#379=LINE('',#2217,#539);
#380=LINE('',#2220,#540);
#381=LINE('',#2222,#541);
#382=LINE('',#2223,#542);
#383=LINE('',#2226,#543);
#384=LINE('',#2228,#544);
#385=LINE('',#2229,#545);
#386=LINE('',#2234,#546);
#387=LINE('',#2238,#547);
#388=LINE('',#2240,#548);
#389=LINE('',#2241,#549);
#390=LINE('',#2246,#550);
#391=LINE('',#2249,#551);
#392=LINE('',#2250,#552);
#393=LINE('',#2264,#553);
#394=LINE('',#2265,#554);
#395=LINE('',#2277,#555);
#396=LINE('',#2278,#556);
#397=LINE('',#2290,#557);
#398=LINE('',#2291,#558);
#399=LINE('',#2293,#559);
#400=LINE('',#2294,#560);
#401=LINE('',#2306,#561);
#402=LINE('',#2307,#562);
#403=LINE('',#2309,#563);
#404=LINE('',#2310,#564);
#405=LINE('',#2312,#565);
#406=LINE('',#2313,#566);
#407=LINE('',#2315,#567);
#408=LINE('',#2316,#568);
#409=LINE('',#2318,#569);
#410=LINE('',#2320,#570);
#411=LINE('',#2323,#571);
#412=LINE('',#2325,#572);
#413=VECTOR('',#1548,10.);
#414=VECTOR('',#1549,10.);
#415=VECTOR('',#1550,10.);
#416=VECTOR('',#1551,10.);
#417=VECTOR('',#1554,10.);
#418=VECTOR('',#1555,10.);
#419=VECTOR('',#1556,10.);
#420=VECTOR('',#1559,10.);
#421=VECTOR('',#1560,10.);
#422=VECTOR('',#1561,10.);
#423=VECTOR('',#1564,10.);
#424=VECTOR('',#1565,10.);
#425=VECTOR('',#1566,10.);
#426=VECTOR('',#1569,10.);
#427=VECTOR('',#1570,10.);
#428=VECTOR('',#1571,10.);
#429=VECTOR('',#1574,10.);
#430=VECTOR('',#1575,10.);
#431=VECTOR('',#1576,10.);
#432=VECTOR('',#1579,10.);
#433=VECTOR('',#1580,10.);
#434=VECTOR('',#1581,10.);
#435=VECTOR('',#1584,10.);
#436=VECTOR('',#1585,10.);
#437=VECTOR('',#1586,10.);
#438=VECTOR('',#1589,10.);
#439=VECTOR('',#1590,10.);
#440=VECTOR('',#1591,10.);
#441=VECTOR('',#1594,10.);
#442=VECTOR('',#1595,10.);
#443=VECTOR('',#1596,10.);
#444=VECTOR('',#1599,10.);
#445=VECTOR('',#1600,10.);
#446=VECTOR('',#1601,10.);
#447=VECTOR('',#1604,10.);
#448=VECTOR('',#1605,10.);
#449=VECTOR('',#1606,10.);
#450=VECTOR('',#1609,10.);
#451=VECTOR('',#1610,10.);
#452=VECTOR('',#1611,10.);
#453=VECTOR('',#1614,10.);
#454=VECTOR('',#1615,10.);
#455=VECTOR('',#1616,10.);
#456=VECTOR('',#1619,10.);
#457=VECTOR('',#1620,10.);
#458=VECTOR('',#1621,10.);
#459=VECTOR('',#1624,10.);
#460=VECTOR('',#1625,10.);
#461=VECTOR('',#1626,10.);
#462=VECTOR('',#1629,10.);
#463=VECTOR('',#1630,10.);
#464=VECTOR('',#1631,10.);
#465=VECTOR('',#1634,10.);
#466=VECTOR('',#1635,10.);
#467=VECTOR('',#1636,10.);
#468=VECTOR('',#1639,10.);
#469=VECTOR('',#1640,10.);
#470=VECTOR('',#1641,10.);
#471=VECTOR('',#1644,10.);
#472=VECTOR('',#1645,10.);
#473=VECTOR('',#1646,10.);
#474=VECTOR('',#1649,10.);
#475=VECTOR('',#1650,10.);
#476=VECTOR('',#1651,10.);
#477=VECTOR('',#1654,10.);
#478=VECTOR('',#1655,10.);
#479=VECTOR('',#1656,10.);
#480=VECTOR('',#1659,10.);
#481=VECTOR('',#1660,10.);
#482=VECTOR('',#1661,10.);
#483=VECTOR('',#1664,10.);
#484=VECTOR('',#1665,10.);
#485=VECTOR('',#1672,10.);
#486=VECTOR('',#1673,10.);
#487=VECTOR('',#1674,10.);
#488=VECTOR('',#1675,10.);
#489=VECTOR('',#1678,10.);
#490=VECTOR('',#1679,10.);
#491=VECTOR('',#1680,10.);
#492=VECTOR('',#1683,10.);
#493=VECTOR('',#1684,10.);
#494=VECTOR('',#1685,10.);
#495=VECTOR('',#1690,0.375);
#496=VECTOR('',#1695,10.);
#497=VECTOR('',#1696,10.);
#498=VECTOR('',#1697,10.);
#499=VECTOR('',#1702,10.);
#500=VECTOR('',#1707,10.);
#501=VECTOR('',#1708,10.);
#502=VECTOR('',#1715,10.);
#503=VECTOR('',#1716,10.);
#504=VECTOR('',#1717,10.);
#505=VECTOR('',#1718,10.);
#506=VECTOR('',#1721,10.);
#507=VECTOR('',#1722,10.);
#508=VECTOR('',#1723,10.);
#509=VECTOR('',#1726,10.);
#510=VECTOR('',#1727,10.);
#511=VECTOR('',#1728,10.);
#512=VECTOR('',#1733,0.375);
#513=VECTOR('',#1738,10.);
#514=VECTOR('',#1739,10.);
#515=VECTOR('',#1740,10.);
#516=VECTOR('',#1745,10.);
#517=VECTOR('',#1750,10.);
#518=VECTOR('',#1751,10.);
#519=VECTOR('',#1758,10.);
#520=VECTOR('',#1759,10.);
#521=VECTOR('',#1760,10.);
#522=VECTOR('',#1761,10.);
#523=VECTOR('',#1764,10.);
#524=VECTOR('',#1765,10.);
#525=VECTOR('',#1766,10.);
#526=VECTOR('',#1769,10.);
#527=VECTOR('',#1770,10.);
#528=VECTOR('',#1771,10.);
#529=VECTOR('',#1776,0.375);
#530=VECTOR('',#1781,10.);
#531=VECTOR('',#1782,10.);
#532=VECTOR('',#1783,10.);
#533=VECTOR('',#1788,10.);
#534=VECTOR('',#1793,10.);
#535=VECTOR('',#1794,10.);
#536=VECTOR('',#1801,10.);
#537=VECTOR('',#1802,10.);
#538=VECTOR('',#1803,10.);
#539=VECTOR('',#1804,10.);
#540=VECTOR('',#1807,10.);
#541=VECTOR('',#1808,10.);
#542=VECTOR('',#1809,10.);
#543=VECTOR('',#1812,10.);
#544=VECTOR('',#1813,10.);
#545=VECTOR('',#1814,10.);
#546=VECTOR('',#1819,0.375000000000001);
#547=VECTOR('',#1824,10.);
#548=VECTOR('',#1825,10.);
#549=VECTOR('',#1826,10.);
#550=VECTOR('',#1831,10.);
#551=VECTOR('',#1836,10.);
#552=VECTOR('',#1837,10.);
#553=VECTOR('',#1854,10.);
#554=VECTOR('',#1855,10.);
#555=VECTOR('',#1868,10.);
#556=VECTOR('',#1869,10.);
#557=VECTOR('',#1882,10.);
#558=VECTOR('',#1883,10.);
#559=VECTOR('',#1886,10.);
#560=VECTOR('',#1887,10.);
#561=VECTOR('',#1900,10.);
#562=VECTOR('',#1901,10.);
#563=VECTOR('',#1904,10.);
#564=VECTOR('',#1905,10.);
#565=VECTOR('',#1908,10.);
#566=VECTOR('',#1909,10.);
#567=VECTOR('',#1912,10.);
#568=VECTOR('',#1913,10.);
#569=VECTOR('',#1916,10.);
#570=VECTOR('',#1919,10.);
#571=VECTOR('',#1924,10.);
#572=VECTOR('',#1927,10.);
#573=VERTEX_POINT('',#1932);
#574=VERTEX_POINT('',#1933);
#575=VERTEX_POINT('',#1935);
#576=VERTEX_POINT('',#1937);
#577=VERTEX_POINT('',#1941);
#578=VERTEX_POINT('',#1943);
#579=VERTEX_POINT('',#1947);
#580=VERTEX_POINT('',#1949);
#581=VERTEX_POINT('',#1953);
#582=VERTEX_POINT('',#1955);
#583=VERTEX_POINT('',#1959);
#584=VERTEX_POINT('',#1961);
#585=VERTEX_POINT('',#1965);
#586=VERTEX_POINT('',#1967);
#587=VERTEX_POINT('',#1971);
#588=VERTEX_POINT('',#1973);
#589=VERTEX_POINT('',#1977);
#590=VERTEX_POINT('',#1979);
#591=VERTEX_POINT('',#1983);
#592=VERTEX_POINT('',#1985);
#593=VERTEX_POINT('',#1989);
#594=VERTEX_POINT('',#1991);
#595=VERTEX_POINT('',#1995);
#596=VERTEX_POINT('',#1997);
#597=VERTEX_POINT('',#2001);
#598=VERTEX_POINT('',#2003);
#599=VERTEX_POINT('',#2007);
#600=VERTEX_POINT('',#2009);
#601=VERTEX_POINT('',#2013);
#602=VERTEX_POINT('',#2015);
#603=VERTEX_POINT('',#2019);
#604=VERTEX_POINT('',#2021);
#605=VERTEX_POINT('',#2025);
#606=VERTEX_POINT('',#2027);
#607=VERTEX_POINT('',#2031);
#608=VERTEX_POINT('',#2033);
#609=VERTEX_POINT('',#2037);
#610=VERTEX_POINT('',#2039);
#611=VERTEX_POINT('',#2043);
#612=VERTEX_POINT('',#2045);
#613=VERTEX_POINT('',#2049);
#614=VERTEX_POINT('',#2051);
#615=VERTEX_POINT('',#2055);
#616=VERTEX_POINT('',#2057);
#617=VERTEX_POINT('',#2061);
#618=VERTEX_POINT('',#2063);
#619=VERTEX_POINT('',#2067);
#620=VERTEX_POINT('',#2069);
#621=VERTEX_POINT('',#2078);
#622=VERTEX_POINT('',#2079);
#623=VERTEX_POINT('',#2081);
#624=VERTEX_POINT('',#2083);
#625=VERTEX_POINT('',#2087);
#626=VERTEX_POINT('',#2089);
#627=VERTEX_POINT('',#2093);
#628=VERTEX_POINT('',#2095);
#629=VERTEX_POINT('',#2099);
#630=VERTEX_POINT('',#2101);
#631=VERTEX_POINT('',#2105);
#632=VERTEX_POINT('',#2107);
#633=VERTEX_POINT('',#2111);
#634=VERTEX_POINT('',#2113);
#635=VERTEX_POINT('',#2122);
#636=VERTEX_POINT('',#2123);
#637=VERTEX_POINT('',#2125);
#638=VERTEX_POINT('',#2127);
#639=VERTEX_POINT('',#2131);
#640=VERTEX_POINT('',#2133);
#641=VERTEX_POINT('',#2137);
#642=VERTEX_POINT('',#2139);
#643=VERTEX_POINT('',#2143);
#644=VERTEX_POINT('',#2145);
#645=VERTEX_POINT('',#2149);
#646=VERTEX_POINT('',#2151);
#647=VERTEX_POINT('',#2155);
#648=VERTEX_POINT('',#2157);
#649=VERTEX_POINT('',#2166);
#650=VERTEX_POINT('',#2167);
#651=VERTEX_POINT('',#2169);
#652=VERTEX_POINT('',#2171);
#653=VERTEX_POINT('',#2175);
#654=VERTEX_POINT('',#2177);
#655=VERTEX_POINT('',#2181);
#656=VERTEX_POINT('',#2183);
#657=VERTEX_POINT('',#2187);
#658=VERTEX_POINT('',#2189);
#659=VERTEX_POINT('',#2193);
#660=VERTEX_POINT('',#2195);
#661=VERTEX_POINT('',#2199);
#662=VERTEX_POINT('',#2201);
#663=VERTEX_POINT('',#2210);
#664=VERTEX_POINT('',#2211);
#665=VERTEX_POINT('',#2213);
#666=VERTEX_POINT('',#2215);
#667=VERTEX_POINT('',#2219);
#668=VERTEX_POINT('',#2221);
#669=VERTEX_POINT('',#2225);
#670=VERTEX_POINT('',#2227);
#671=VERTEX_POINT('',#2231);
#672=VERTEX_POINT('',#2233);
#673=VERTEX_POINT('',#2237);
#674=VERTEX_POINT('',#2239);
#675=VERTEX_POINT('',#2243);
#676=VERTEX_POINT('',#2245);
#677=VERTEX_POINT('',#2254);
#678=VERTEX_POINT('',#2255);
#679=VERTEX_POINT('',#2257);
#680=VERTEX_POINT('',#2261);
#681=VERTEX_POINT('',#2262);
#682=VERTEX_POINT('',#2267);
#683=VERTEX_POINT('',#2268);
#684=VERTEX_POINT('',#2270);
#685=VERTEX_POINT('',#2274);
#686=VERTEX_POINT('',#2275);
#687=VERTEX_POINT('',#2280);
#688=VERTEX_POINT('',#2281);
#689=VERTEX_POINT('',#2283);
#690=VERTEX_POINT('',#2287);
#691=VERTEX_POINT('',#2288);
#692=VERTEX_POINT('',#2296);
#693=VERTEX_POINT('',#2297);
#694=VERTEX_POINT('',#2299);
#695=VERTEX_POINT('',#2303);
#696=VERTEX_POINT('',#2304);
#697=EDGE_CURVE('',#573,#574,#253,.T.);
#698=EDGE_CURVE('',#573,#575,#254,.T.);
#699=EDGE_CURVE('',#576,#575,#255,.T.);
#700=EDGE_CURVE('',#574,#576,#256,.T.);
#701=EDGE_CURVE('',#574,#577,#257,.T.);
#702=EDGE_CURVE('',#578,#576,#258,.T.);
#703=EDGE_CURVE('',#577,#578,#259,.T.);
#704=EDGE_CURVE('',#577,#579,#260,.T.);
#705=EDGE_CURVE('',#580,#578,#261,.T.);
#706=EDGE_CURVE('',#579,#580,#262,.T.);
#707=EDGE_CURVE('',#581,#579,#263,.T.);
#708=EDGE_CURVE('',#582,#580,#264,.T.);
#709=EDGE_CURVE('',#581,#582,#265,.T.);
#710=EDGE_CURVE('',#581,#583,#266,.T.);
#711=EDGE_CURVE('',#584,#582,#267,.T.);
#712=EDGE_CURVE('',#583,#584,#268,.T.);
#713=EDGE_CURVE('',#583,#585,#269,.T.);
#714=EDGE_CURVE('',#586,#584,#270,.T.);
#715=EDGE_CURVE('',#585,#586,#271,.T.);
#716=EDGE_CURVE('',#585,#587,#272,.T.);
#717=EDGE_CURVE('',#588,#586,#273,.T.);
#718=EDGE_CURVE('',#587,#588,#274,.T.);
#719=EDGE_CURVE('',#589,#587,#275,.T.);
#720=EDGE_CURVE('',#590,#588,#276,.T.);
#721=EDGE_CURVE('',#589,#590,#277,.T.);
#722=EDGE_CURVE('',#589,#591,#278,.T.);
#723=EDGE_CURVE('',#592,#590,#279,.T.);
#724=EDGE_CURVE('',#591,#592,#280,.T.);
#725=EDGE_CURVE('',#591,#593,#281,.T.);
#726=EDGE_CURVE('',#594,#592,#282,.T.);
#727=EDGE_CURVE('',#593,#594,#283,.T.);
#728=EDGE_CURVE('',#593,#595,#284,.T.);
#729=EDGE_CURVE('',#596,#594,#285,.T.);
#730=EDGE_CURVE('',#595,#596,#286,.T.);
#731=EDGE_CURVE('',#597,#595,#287,.T.);
#732=EDGE_CURVE('',#598,#596,#288,.T.);
#733=EDGE_CURVE('',#597,#598,#289,.T.);
#734=EDGE_CURVE('',#599,#597,#290,.T.);
#735=EDGE_CURVE('',#600,#598,#291,.T.);
#736=EDGE_CURVE('',#599,#600,#292,.T.);
#737=EDGE_CURVE('',#599,#601,#293,.T.);
#738=EDGE_CURVE('',#602,#600,#294,.T.);
#739=EDGE_CURVE('',#601,#602,#295,.T.);
#740=EDGE_CURVE('',#603,#601,#296,.T.);
#741=EDGE_CURVE('',#604,#602,#297,.T.);
#742=EDGE_CURVE('',#603,#604,#298,.T.);
#743=EDGE_CURVE('',#605,#603,#299,.T.);
#744=EDGE_CURVE('',#606,#604,#300,.T.);
#745=EDGE_CURVE('',#605,#606,#301,.T.);
#746=EDGE_CURVE('',#607,#605,#302,.T.);
#747=EDGE_CURVE('',#608,#606,#303,.T.);
#748=EDGE_CURVE('',#607,#608,#304,.T.);
#749=EDGE_CURVE('',#609,#607,#305,.T.);
#750=EDGE_CURVE('',#610,#608,#306,.T.);
#751=EDGE_CURVE('',#609,#610,#307,.T.);
#752=EDGE_CURVE('',#611,#609,#308,.T.);
#753=EDGE_CURVE('',#612,#610,#309,.T.);
#754=EDGE_CURVE('',#611,#612,#310,.T.);
#755=EDGE_CURVE('',#613,#611,#311,.T.);
#756=EDGE_CURVE('',#614,#612,#312,.T.);
#757=EDGE_CURVE('',#613,#614,#313,.T.);
#758=EDGE_CURVE('',#615,#613,#314,.T.);
#759=EDGE_CURVE('',#616,#614,#315,.T.);
#760=EDGE_CURVE('',#615,#616,#316,.T.);
#761=EDGE_CURVE('',#617,#615,#317,.T.);
#762=EDGE_CURVE('',#618,#616,#318,.T.);
#763=EDGE_CURVE('',#617,#618,#319,.T.);
#764=EDGE_CURVE('',#619,#617,#320,.T.);
#765=EDGE_CURVE('',#620,#618,#321,.T.);
#766=EDGE_CURVE('',#619,#620,#322,.T.);
#767=EDGE_CURVE('',#573,#619,#323,.T.);
#768=EDGE_CURVE('',#575,#620,#324,.T.);
#769=EDGE_CURVE('',#621,#622,#325,.T.);
#770=EDGE_CURVE('',#623,#622,#326,.T.);
#771=EDGE_CURVE('',#623,#624,#327,.T.);
#772=EDGE_CURVE('',#624,#621,#328,.T.);
#773=EDGE_CURVE('',#622,#625,#329,.T.);
#774=EDGE_CURVE('',#626,#625,#330,.T.);
#775=EDGE_CURVE('',#626,#623,#331,.T.);
#776=EDGE_CURVE('',#625,#627,#332,.T.);
#777=EDGE_CURVE('',#628,#627,#333,.T.);
#778=EDGE_CURVE('',#628,#626,#334,.T.);
#779=EDGE_CURVE('',#629,#629,#25,.T.);
#780=EDGE_CURVE('',#629,#630,#335,.T.);
#781=EDGE_CURVE('',#630,#630,#26,.T.);
#782=EDGE_CURVE('',#627,#631,#336,.T.);
#783=EDGE_CURVE('',#632,#631,#337,.T.);
#784=EDGE_CURVE('',#632,#628,#338,.T.);
#785=EDGE_CURVE('',#631,#633,#27,.T.);
#786=EDGE_CURVE('',#634,#633,#339,.T.);
#787=EDGE_CURVE('',#632,#634,#28,.T.);
#788=EDGE_CURVE('',#633,#621,#340,.T.);
#789=EDGE_CURVE('',#624,#634,#341,.T.);
#790=EDGE_CURVE('',#635,#636,#342,.T.);
#791=EDGE_CURVE('',#637,#636,#343,.T.);
#792=EDGE_CURVE('',#637,#638,#344,.T.);
#793=EDGE_CURVE('',#638,#635,#345,.T.);
#794=EDGE_CURVE('',#636,#639,#346,.T.);
#795=EDGE_CURVE('',#640,#639,#347,.T.);
#796=EDGE_CURVE('',#640,#637,#348,.T.);
#797=EDGE_CURVE('',#639,#641,#349,.T.);
#798=EDGE_CURVE('',#642,#641,#350,.T.);
#799=EDGE_CURVE('',#642,#640,#351,.T.);
#800=EDGE_CURVE('',#643,#643,#29,.T.);
#801=EDGE_CURVE('',#643,#644,#352,.T.);
#802=EDGE_CURVE('',#644,#644,#30,.T.);
#803=EDGE_CURVE('',#641,#645,#353,.T.);
#804=EDGE_CURVE('',#646,#645,#354,.T.);
#805=EDGE_CURVE('',#646,#642,#355,.T.);
#806=EDGE_CURVE('',#645,#647,#31,.T.);
#807=EDGE_CURVE('',#648,#647,#356,.T.);
#808=EDGE_CURVE('',#646,#648,#32,.T.);
#809=EDGE_CURVE('',#647,#635,#357,.T.);
#810=EDGE_CURVE('',#638,#648,#358,.T.);
#811=EDGE_CURVE('',#649,#650,#359,.T.);
#812=EDGE_CURVE('',#651,#650,#360,.T.);
#813=EDGE_CURVE('',#651,#652,#361,.T.);
#814=EDGE_CURVE('',#652,#649,#362,.T.);
#815=EDGE_CURVE('',#650,#653,#363,.T.);
#816=EDGE_CURVE('',#654,#653,#364,.T.);
#817=EDGE_CURVE('',#654,#651,#365,.T.);
#818=EDGE_CURVE('',#653,#655,#366,.T.);
#819=EDGE_CURVE('',#656,#655,#367,.T.);
#820=EDGE_CURVE('',#656,#654,#368,.T.);
#821=EDGE_CURVE('',#657,#657,#33,.T.);
#822=EDGE_CURVE('',#657,#658,#369,.T.);
#823=EDGE_CURVE('',#658,#658,#34,.T.);
#824=EDGE_CURVE('',#655,#659,#370,.T.);
#825=EDGE_CURVE('',#660,#659,#371,.T.);
#826=EDGE_CURVE('',#660,#656,#372,.T.);
#827=EDGE_CURVE('',#659,#661,#35,.T.);
#828=EDGE_CURVE('',#662,#661,#373,.T.);
#829=EDGE_CURVE('',#660,#662,#36,.T.);
#830=EDGE_CURVE('',#661,#649,#374,.T.);
#831=EDGE_CURVE('',#652,#662,#375,.T.);
#832=EDGE_CURVE('',#663,#664,#376,.T.);
#833=EDGE_CURVE('',#665,#664,#377,.T.);
#834=EDGE_CURVE('',#666,#665,#378,.T.);
#835=EDGE_CURVE('',#666,#663,#379,.T.);
#836=EDGE_CURVE('',#664,#667,#380,.T.);
#837=EDGE_CURVE('',#668,#667,#381,.T.);
#838=EDGE_CURVE('',#665,#668,#382,.T.);
#839=EDGE_CURVE('',#667,#669,#383,.T.);
#840=EDGE_CURVE('',#670,#669,#384,.T.);
#841=EDGE_CURVE('',#668,#670,#385,.T.);
#842=EDGE_CURVE('',#671,#671,#37,.T.);
#843=EDGE_CURVE('',#671,#672,#386,.T.);
#844=EDGE_CURVE('',#672,#672,#38,.T.);
#845=EDGE_CURVE('',#669,#673,#387,.T.);
#846=EDGE_CURVE('',#674,#673,#388,.T.);
#847=EDGE_CURVE('',#670,#674,#389,.T.);
#848=EDGE_CURVE('',#673,#675,#39,.T.);
#849=EDGE_CURVE('',#676,#675,#390,.T.);
#850=EDGE_CURVE('',#674,#676,#40,.T.);
#851=EDGE_CURVE('',#675,#663,#391,.T.);
#852=EDGE_CURVE('',#676,#666,#392,.T.);
#853=EDGE_CURVE('',#677,#678,#41,.F.);
#854=EDGE_CURVE('',#679,#677,#42,.F.);
#855=EDGE_CURVE('',#678,#679,#43,.F.);
#856=EDGE_CURVE('',#680,#681,#44,.T.);
#857=EDGE_CURVE('',#681,#679,#393,.T.);
#858=EDGE_CURVE('',#677,#680,#394,.T.);
#859=EDGE_CURVE('',#682,#683,#45,.F.);
#860=EDGE_CURVE('',#684,#682,#46,.F.);
#861=EDGE_CURVE('',#683,#684,#47,.F.);
#862=EDGE_CURVE('',#685,#686,#48,.T.);
#863=EDGE_CURVE('',#686,#684,#395,.T.);
#864=EDGE_CURVE('',#682,#685,#396,.T.);
#865=EDGE_CURVE('',#687,#688,#49,.F.);
#866=EDGE_CURVE('',#689,#687,#50,.F.);
#867=EDGE_CURVE('',#688,#689,#51,.F.);
#868=EDGE_CURVE('',#690,#691,#52,.T.);
#869=EDGE_CURVE('',#691,#689,#397,.T.);
#870=EDGE_CURVE('',#687,#690,#398,.T.);
#871=EDGE_CURVE('',#678,#688,#399,.T.);
#872=EDGE_CURVE('',#689,#677,#400,.T.);
#873=EDGE_CURVE('',#692,#693,#53,.F.);
#874=EDGE_CURVE('',#694,#692,#54,.F.);
#875=EDGE_CURVE('',#693,#694,#55,.F.);
#876=EDGE_CURVE('',#695,#696,#56,.T.);
#877=EDGE_CURVE('',#696,#694,#401,.T.);
#878=EDGE_CURVE('',#692,#695,#402,.T.);
#879=EDGE_CURVE('',#688,#693,#403,.T.);
#880=EDGE_CURVE('',#694,#687,#404,.T.);
#881=EDGE_CURVE('',#693,#683,#405,.T.);
#882=EDGE_CURVE('',#684,#692,#406,.T.);
#883=EDGE_CURVE('',#683,#678,#407,.T.);
#884=EDGE_CURVE('',#679,#682,#408,.T.);
#885=EDGE_CURVE('',#680,#691,#409,.T.);
#886=EDGE_CURVE('',#690,#696,#410,.T.);
#887=EDGE_CURVE('',#695,#686,#411,.T.);
#888=EDGE_CURVE('',#685,#681,#412,.T.);
#889=ORIENTED_EDGE('',*,*,#697,.F.);
#890=ORIENTED_EDGE('',*,*,#698,.T.);
#891=ORIENTED_EDGE('',*,*,#699,.F.);
#892=ORIENTED_EDGE('',*,*,#700,.F.);
#893=ORIENTED_EDGE('',*,*,#701,.F.);
#894=ORIENTED_EDGE('',*,*,#700,.T.);
#895=ORIENTED_EDGE('',*,*,#702,.F.);
#896=ORIENTED_EDGE('',*,*,#703,.F.);
#897=ORIENTED_EDGE('',*,*,#704,.F.);
#898=ORIENTED_EDGE('',*,*,#703,.T.);
#899=ORIENTED_EDGE('',*,*,#705,.F.);
#900=ORIENTED_EDGE('',*,*,#706,.F.);
#901=ORIENTED_EDGE('',*,*,#707,.T.);
#902=ORIENTED_EDGE('',*,*,#706,.T.);
#903=ORIENTED_EDGE('',*,*,#708,.F.);
#904=ORIENTED_EDGE('',*,*,#709,.F.);
#905=ORIENTED_EDGE('',*,*,#710,.F.);
#906=ORIENTED_EDGE('',*,*,#709,.T.);
#907=ORIENTED_EDGE('',*,*,#711,.F.);
#908=ORIENTED_EDGE('',*,*,#712,.F.);
#909=ORIENTED_EDGE('',*,*,#713,.F.);
#910=ORIENTED_EDGE('',*,*,#712,.T.);
#911=ORIENTED_EDGE('',*,*,#714,.F.);
#912=ORIENTED_EDGE('',*,*,#715,.F.);
#913=ORIENTED_EDGE('',*,*,#716,.F.);
#914=ORIENTED_EDGE('',*,*,#715,.T.);
#915=ORIENTED_EDGE('',*,*,#717,.F.);
#916=ORIENTED_EDGE('',*,*,#718,.F.);
#917=ORIENTED_EDGE('',*,*,#719,.T.);
#918=ORIENTED_EDGE('',*,*,#718,.T.);
#919=ORIENTED_EDGE('',*,*,#720,.F.);
#920=ORIENTED_EDGE('',*,*,#721,.F.);
#921=ORIENTED_EDGE('',*,*,#722,.F.);
#922=ORIENTED_EDGE('',*,*,#721,.T.);
#923=ORIENTED_EDGE('',*,*,#723,.F.);
#924=ORIENTED_EDGE('',*,*,#724,.F.);
#925=ORIENTED_EDGE('',*,*,#725,.F.);
#926=ORIENTED_EDGE('',*,*,#724,.T.);
#927=ORIENTED_EDGE('',*,*,#726,.F.);
#928=ORIENTED_EDGE('',*,*,#727,.F.);
#929=ORIENTED_EDGE('',*,*,#728,.F.);
#930=ORIENTED_EDGE('',*,*,#727,.T.);
#931=ORIENTED_EDGE('',*,*,#729,.F.);
#932=ORIENTED_EDGE('',*,*,#730,.F.);
#933=ORIENTED_EDGE('',*,*,#731,.T.);
#934=ORIENTED_EDGE('',*,*,#730,.T.);
#935=ORIENTED_EDGE('',*,*,#732,.F.);
#936=ORIENTED_EDGE('',*,*,#733,.F.);
#937=ORIENTED_EDGE('',*,*,#734,.T.);
#938=ORIENTED_EDGE('',*,*,#733,.T.);
#939=ORIENTED_EDGE('',*,*,#735,.F.);
#940=ORIENTED_EDGE('',*,*,#736,.F.);
#941=ORIENTED_EDGE('',*,*,#737,.F.);
#942=ORIENTED_EDGE('',*,*,#736,.T.);
#943=ORIENTED_EDGE('',*,*,#738,.F.);
#944=ORIENTED_EDGE('',*,*,#739,.F.);
#945=ORIENTED_EDGE('',*,*,#740,.T.);
#946=ORIENTED_EDGE('',*,*,#739,.T.);
#947=ORIENTED_EDGE('',*,*,#741,.F.);
#948=ORIENTED_EDGE('',*,*,#742,.F.);
#949=ORIENTED_EDGE('',*,*,#743,.T.);
#950=ORIENTED_EDGE('',*,*,#742,.T.);
#951=ORIENTED_EDGE('',*,*,#744,.F.);
#952=ORIENTED_EDGE('',*,*,#745,.F.);
#953=ORIENTED_EDGE('',*,*,#746,.T.);
#954=ORIENTED_EDGE('',*,*,#745,.T.);
#955=ORIENTED_EDGE('',*,*,#747,.F.);
#956=ORIENTED_EDGE('',*,*,#748,.F.);
#957=ORIENTED_EDGE('',*,*,#749,.T.);
#958=ORIENTED_EDGE('',*,*,#748,.T.);
#959=ORIENTED_EDGE('',*,*,#750,.F.);
#960=ORIENTED_EDGE('',*,*,#751,.F.);
#961=ORIENTED_EDGE('',*,*,#752,.T.);
#962=ORIENTED_EDGE('',*,*,#751,.T.);
#963=ORIENTED_EDGE('',*,*,#753,.F.);
#964=ORIENTED_EDGE('',*,*,#754,.F.);
#965=ORIENTED_EDGE('',*,*,#755,.T.);
#966=ORIENTED_EDGE('',*,*,#754,.T.);
#967=ORIENTED_EDGE('',*,*,#756,.F.);
#968=ORIENTED_EDGE('',*,*,#757,.F.);
#969=ORIENTED_EDGE('',*,*,#758,.T.);
#970=ORIENTED_EDGE('',*,*,#757,.T.);
#971=ORIENTED_EDGE('',*,*,#759,.F.);
#972=ORIENTED_EDGE('',*,*,#760,.F.);
#973=ORIENTED_EDGE('',*,*,#761,.T.);
#974=ORIENTED_EDGE('',*,*,#760,.T.);
#975=ORIENTED_EDGE('',*,*,#762,.F.);
#976=ORIENTED_EDGE('',*,*,#763,.F.);
#977=ORIENTED_EDGE('',*,*,#764,.T.);
#978=ORIENTED_EDGE('',*,*,#763,.T.);
#979=ORIENTED_EDGE('',*,*,#765,.F.);
#980=ORIENTED_EDGE('',*,*,#766,.F.);
#981=ORIENTED_EDGE('',*,*,#767,.T.);
#982=ORIENTED_EDGE('',*,*,#766,.T.);
#983=ORIENTED_EDGE('',*,*,#768,.F.);
#984=ORIENTED_EDGE('',*,*,#698,.F.);
#985=ORIENTED_EDGE('',*,*,#768,.T.);
#986=ORIENTED_EDGE('',*,*,#765,.T.);
#987=ORIENTED_EDGE('',*,*,#762,.T.);
#988=ORIENTED_EDGE('',*,*,#759,.T.);
#989=ORIENTED_EDGE('',*,*,#756,.T.);
#990=ORIENTED_EDGE('',*,*,#753,.T.);
#991=ORIENTED_EDGE('',*,*,#750,.T.);
#992=ORIENTED_EDGE('',*,*,#747,.T.);
#993=ORIENTED_EDGE('',*,*,#744,.T.);
#994=ORIENTED_EDGE('',*,*,#741,.T.);
#995=ORIENTED_EDGE('',*,*,#738,.T.);
#996=ORIENTED_EDGE('',*,*,#735,.T.);
#997=ORIENTED_EDGE('',*,*,#732,.T.);
#998=ORIENTED_EDGE('',*,*,#729,.T.);
#999=ORIENTED_EDGE('',*,*,#726,.T.);
#1000=ORIENTED_EDGE('',*,*,#723,.T.);
#1001=ORIENTED_EDGE('',*,*,#720,.T.);
#1002=ORIENTED_EDGE('',*,*,#717,.T.);
#1003=ORIENTED_EDGE('',*,*,#714,.T.);
#1004=ORIENTED_EDGE('',*,*,#711,.T.);
#1005=ORIENTED_EDGE('',*,*,#708,.T.);
#1006=ORIENTED_EDGE('',*,*,#705,.T.);
#1007=ORIENTED_EDGE('',*,*,#702,.T.);
#1008=ORIENTED_EDGE('',*,*,#699,.T.);
#1009=ORIENTED_EDGE('',*,*,#767,.F.);
#1010=ORIENTED_EDGE('',*,*,#697,.T.);
#1011=ORIENTED_EDGE('',*,*,#701,.T.);
#1012=ORIENTED_EDGE('',*,*,#704,.T.);
#1013=ORIENTED_EDGE('',*,*,#707,.F.);
#1014=ORIENTED_EDGE('',*,*,#710,.T.);
#1015=ORIENTED_EDGE('',*,*,#713,.T.);
#1016=ORIENTED_EDGE('',*,*,#716,.T.);
#1017=ORIENTED_EDGE('',*,*,#719,.F.);
#1018=ORIENTED_EDGE('',*,*,#722,.T.);
#1019=ORIENTED_EDGE('',*,*,#725,.T.);
#1020=ORIENTED_EDGE('',*,*,#728,.T.);
#1021=ORIENTED_EDGE('',*,*,#731,.F.);
#1022=ORIENTED_EDGE('',*,*,#734,.F.);
#1023=ORIENTED_EDGE('',*,*,#737,.T.);
#1024=ORIENTED_EDGE('',*,*,#740,.F.);
#1025=ORIENTED_EDGE('',*,*,#743,.F.);
#1026=ORIENTED_EDGE('',*,*,#746,.F.);
#1027=ORIENTED_EDGE('',*,*,#749,.F.);
#1028=ORIENTED_EDGE('',*,*,#752,.F.);
#1029=ORIENTED_EDGE('',*,*,#755,.F.);
#1030=ORIENTED_EDGE('',*,*,#758,.F.);
#1031=ORIENTED_EDGE('',*,*,#761,.F.);
#1032=ORIENTED_EDGE('',*,*,#764,.F.);
#1033=ORIENTED_EDGE('',*,*,#769,.T.);
#1034=ORIENTED_EDGE('',*,*,#770,.F.);
#1035=ORIENTED_EDGE('',*,*,#771,.T.);
#1036=ORIENTED_EDGE('',*,*,#772,.T.);
#1037=ORIENTED_EDGE('',*,*,#773,.T.);
#1038=ORIENTED_EDGE('',*,*,#774,.F.);
#1039=ORIENTED_EDGE('',*,*,#775,.T.);
#1040=ORIENTED_EDGE('',*,*,#770,.T.);
#1041=ORIENTED_EDGE('',*,*,#776,.T.);
#1042=ORIENTED_EDGE('',*,*,#777,.F.);
#1043=ORIENTED_EDGE('',*,*,#778,.T.);
#1044=ORIENTED_EDGE('',*,*,#774,.T.);
#1045=ORIENTED_EDGE('',*,*,#779,.T.);
#1046=ORIENTED_EDGE('',*,*,#780,.T.);
#1047=ORIENTED_EDGE('',*,*,#781,.T.);
#1048=ORIENTED_EDGE('',*,*,#780,.F.);
#1049=ORIENTED_EDGE('',*,*,#782,.T.);
#1050=ORIENTED_EDGE('',*,*,#783,.F.);
#1051=ORIENTED_EDGE('',*,*,#784,.T.);
#1052=ORIENTED_EDGE('',*,*,#777,.T.);
#1053=ORIENTED_EDGE('',*,*,#785,.T.);
#1054=ORIENTED_EDGE('',*,*,#786,.F.);
#1055=ORIENTED_EDGE('',*,*,#787,.F.);
#1056=ORIENTED_EDGE('',*,*,#783,.T.);
#1057=ORIENTED_EDGE('',*,*,#788,.T.);
#1058=ORIENTED_EDGE('',*,*,#772,.F.);
#1059=ORIENTED_EDGE('',*,*,#789,.T.);
#1060=ORIENTED_EDGE('',*,*,#786,.T.);
#1061=ORIENTED_EDGE('',*,*,#778,.F.);
#1062=ORIENTED_EDGE('',*,*,#784,.F.);
#1063=ORIENTED_EDGE('',*,*,#787,.T.);
#1064=ORIENTED_EDGE('',*,*,#789,.F.);
#1065=ORIENTED_EDGE('',*,*,#771,.F.);
#1066=ORIENTED_EDGE('',*,*,#775,.F.);
#1067=ORIENTED_EDGE('',*,*,#781,.F.);
#1068=ORIENTED_EDGE('',*,*,#782,.F.);
#1069=ORIENTED_EDGE('',*,*,#776,.F.);
#1070=ORIENTED_EDGE('',*,*,#773,.F.);
#1071=ORIENTED_EDGE('',*,*,#769,.F.);
#1072=ORIENTED_EDGE('',*,*,#788,.F.);
#1073=ORIENTED_EDGE('',*,*,#785,.F.);
#1074=ORIENTED_EDGE('',*,*,#779,.F.);
#1075=ORIENTED_EDGE('',*,*,#790,.T.);
#1076=ORIENTED_EDGE('',*,*,#791,.F.);
#1077=ORIENTED_EDGE('',*,*,#792,.T.);
#1078=ORIENTED_EDGE('',*,*,#793,.T.);
#1079=ORIENTED_EDGE('',*,*,#794,.T.);
#1080=ORIENTED_EDGE('',*,*,#795,.F.);
#1081=ORIENTED_EDGE('',*,*,#796,.T.);
#1082=ORIENTED_EDGE('',*,*,#791,.T.);
#1083=ORIENTED_EDGE('',*,*,#797,.T.);
#1084=ORIENTED_EDGE('',*,*,#798,.F.);
#1085=ORIENTED_EDGE('',*,*,#799,.T.);
#1086=ORIENTED_EDGE('',*,*,#795,.T.);
#1087=ORIENTED_EDGE('',*,*,#800,.T.);
#1088=ORIENTED_EDGE('',*,*,#801,.T.);
#1089=ORIENTED_EDGE('',*,*,#802,.T.);
#1090=ORIENTED_EDGE('',*,*,#801,.F.);
#1091=ORIENTED_EDGE('',*,*,#803,.T.);
#1092=ORIENTED_EDGE('',*,*,#804,.F.);
#1093=ORIENTED_EDGE('',*,*,#805,.T.);
#1094=ORIENTED_EDGE('',*,*,#798,.T.);
#1095=ORIENTED_EDGE('',*,*,#806,.T.);
#1096=ORIENTED_EDGE('',*,*,#807,.F.);
#1097=ORIENTED_EDGE('',*,*,#808,.F.);
#1098=ORIENTED_EDGE('',*,*,#804,.T.);
#1099=ORIENTED_EDGE('',*,*,#809,.T.);
#1100=ORIENTED_EDGE('',*,*,#793,.F.);
#1101=ORIENTED_EDGE('',*,*,#810,.T.);
#1102=ORIENTED_EDGE('',*,*,#807,.T.);
#1103=ORIENTED_EDGE('',*,*,#799,.F.);
#1104=ORIENTED_EDGE('',*,*,#805,.F.);
#1105=ORIENTED_EDGE('',*,*,#808,.T.);
#1106=ORIENTED_EDGE('',*,*,#810,.F.);
#1107=ORIENTED_EDGE('',*,*,#792,.F.);
#1108=ORIENTED_EDGE('',*,*,#796,.F.);
#1109=ORIENTED_EDGE('',*,*,#802,.F.);
#1110=ORIENTED_EDGE('',*,*,#803,.F.);
#1111=ORIENTED_EDGE('',*,*,#797,.F.);
#1112=ORIENTED_EDGE('',*,*,#794,.F.);
#1113=ORIENTED_EDGE('',*,*,#790,.F.);
#1114=ORIENTED_EDGE('',*,*,#809,.F.);
#1115=ORIENTED_EDGE('',*,*,#806,.F.);
#1116=ORIENTED_EDGE('',*,*,#800,.F.);
#1117=ORIENTED_EDGE('',*,*,#811,.T.);
#1118=ORIENTED_EDGE('',*,*,#812,.F.);
#1119=ORIENTED_EDGE('',*,*,#813,.T.);
#1120=ORIENTED_EDGE('',*,*,#814,.T.);
#1121=ORIENTED_EDGE('',*,*,#815,.T.);
#1122=ORIENTED_EDGE('',*,*,#816,.F.);
#1123=ORIENTED_EDGE('',*,*,#817,.T.);
#1124=ORIENTED_EDGE('',*,*,#812,.T.);
#1125=ORIENTED_EDGE('',*,*,#818,.T.);
#1126=ORIENTED_EDGE('',*,*,#819,.F.);
#1127=ORIENTED_EDGE('',*,*,#820,.T.);
#1128=ORIENTED_EDGE('',*,*,#816,.T.);
#1129=ORIENTED_EDGE('',*,*,#821,.T.);
#1130=ORIENTED_EDGE('',*,*,#822,.T.);
#1131=ORIENTED_EDGE('',*,*,#823,.T.);
#1132=ORIENTED_EDGE('',*,*,#822,.F.);
#1133=ORIENTED_EDGE('',*,*,#824,.T.);
#1134=ORIENTED_EDGE('',*,*,#825,.F.);
#1135=ORIENTED_EDGE('',*,*,#826,.T.);
#1136=ORIENTED_EDGE('',*,*,#819,.T.);
#1137=ORIENTED_EDGE('',*,*,#827,.T.);
#1138=ORIENTED_EDGE('',*,*,#828,.F.);
#1139=ORIENTED_EDGE('',*,*,#829,.F.);
#1140=ORIENTED_EDGE('',*,*,#825,.T.);
#1141=ORIENTED_EDGE('',*,*,#830,.T.);
#1142=ORIENTED_EDGE('',*,*,#814,.F.);
#1143=ORIENTED_EDGE('',*,*,#831,.T.);
#1144=ORIENTED_EDGE('',*,*,#828,.T.);
#1145=ORIENTED_EDGE('',*,*,#820,.F.);
#1146=ORIENTED_EDGE('',*,*,#826,.F.);
#1147=ORIENTED_EDGE('',*,*,#829,.T.);
#1148=ORIENTED_EDGE('',*,*,#831,.F.);
#1149=ORIENTED_EDGE('',*,*,#813,.F.);
#1150=ORIENTED_EDGE('',*,*,#817,.F.);
#1151=ORIENTED_EDGE('',*,*,#823,.F.);
#1152=ORIENTED_EDGE('',*,*,#824,.F.);
#1153=ORIENTED_EDGE('',*,*,#818,.F.);
#1154=ORIENTED_EDGE('',*,*,#815,.F.);
#1155=ORIENTED_EDGE('',*,*,#811,.F.);
#1156=ORIENTED_EDGE('',*,*,#830,.F.);
#1157=ORIENTED_EDGE('',*,*,#827,.F.);
#1158=ORIENTED_EDGE('',*,*,#821,.F.);
#1159=ORIENTED_EDGE('',*,*,#832,.T.);
#1160=ORIENTED_EDGE('',*,*,#833,.F.);
#1161=ORIENTED_EDGE('',*,*,#834,.F.);
#1162=ORIENTED_EDGE('',*,*,#835,.T.);
#1163=ORIENTED_EDGE('',*,*,#836,.T.);
#1164=ORIENTED_EDGE('',*,*,#837,.F.);
#1165=ORIENTED_EDGE('',*,*,#838,.F.);
#1166=ORIENTED_EDGE('',*,*,#833,.T.);
#1167=ORIENTED_EDGE('',*,*,#839,.T.);
#1168=ORIENTED_EDGE('',*,*,#840,.F.);
#1169=ORIENTED_EDGE('',*,*,#841,.F.);
#1170=ORIENTED_EDGE('',*,*,#837,.T.);
#1171=ORIENTED_EDGE('',*,*,#842,.T.);
#1172=ORIENTED_EDGE('',*,*,#843,.T.);
#1173=ORIENTED_EDGE('',*,*,#844,.T.);
#1174=ORIENTED_EDGE('',*,*,#843,.F.);
#1175=ORIENTED_EDGE('',*,*,#845,.T.);
#1176=ORIENTED_EDGE('',*,*,#846,.F.);
#1177=ORIENTED_EDGE('',*,*,#847,.F.);
#1178=ORIENTED_EDGE('',*,*,#840,.T.);
#1179=ORIENTED_EDGE('',*,*,#848,.T.);
#1180=ORIENTED_EDGE('',*,*,#849,.F.);
#1181=ORIENTED_EDGE('',*,*,#850,.F.);
#1182=ORIENTED_EDGE('',*,*,#846,.T.);
#1183=ORIENTED_EDGE('',*,*,#851,.T.);
#1184=ORIENTED_EDGE('',*,*,#835,.F.);
#1185=ORIENTED_EDGE('',*,*,#852,.F.);
#1186=ORIENTED_EDGE('',*,*,#849,.T.);
#1187=ORIENTED_EDGE('',*,*,#841,.T.);
#1188=ORIENTED_EDGE('',*,*,#847,.T.);
#1189=ORIENTED_EDGE('',*,*,#850,.T.);
#1190=ORIENTED_EDGE('',*,*,#852,.T.);
#1191=ORIENTED_EDGE('',*,*,#834,.T.);
#1192=ORIENTED_EDGE('',*,*,#838,.T.);
#1193=ORIENTED_EDGE('',*,*,#844,.F.);
#1194=ORIENTED_EDGE('',*,*,#845,.F.);
#1195=ORIENTED_EDGE('',*,*,#839,.F.);
#1196=ORIENTED_EDGE('',*,*,#836,.F.);
#1197=ORIENTED_EDGE('',*,*,#832,.F.);
#1198=ORIENTED_EDGE('',*,*,#851,.F.);
#1199=ORIENTED_EDGE('',*,*,#848,.F.);
#1200=ORIENTED_EDGE('',*,*,#842,.F.);
#1201=ORIENTED_EDGE('',*,*,#853,.F.);
#1202=ORIENTED_EDGE('',*,*,#854,.F.);
#1203=ORIENTED_EDGE('',*,*,#855,.F.);
#1204=ORIENTED_EDGE('',*,*,#856,.T.);
#1205=ORIENTED_EDGE('',*,*,#857,.T.);
#1206=ORIENTED_EDGE('',*,*,#854,.T.);
#1207=ORIENTED_EDGE('',*,*,#858,.T.);
#1208=ORIENTED_EDGE('',*,*,#859,.F.);
#1209=ORIENTED_EDGE('',*,*,#860,.F.);
#1210=ORIENTED_EDGE('',*,*,#861,.F.);
#1211=ORIENTED_EDGE('',*,*,#862,.T.);
#1212=ORIENTED_EDGE('',*,*,#863,.T.);
#1213=ORIENTED_EDGE('',*,*,#860,.T.);
#1214=ORIENTED_EDGE('',*,*,#864,.T.);
#1215=ORIENTED_EDGE('',*,*,#865,.F.);
#1216=ORIENTED_EDGE('',*,*,#866,.F.);
#1217=ORIENTED_EDGE('',*,*,#867,.F.);
#1218=ORIENTED_EDGE('',*,*,#868,.T.);
#1219=ORIENTED_EDGE('',*,*,#869,.T.);
#1220=ORIENTED_EDGE('',*,*,#866,.T.);
#1221=ORIENTED_EDGE('',*,*,#870,.T.);
#1222=ORIENTED_EDGE('',*,*,#853,.T.);
#1223=ORIENTED_EDGE('',*,*,#871,.T.);
#1224=ORIENTED_EDGE('',*,*,#867,.T.);
#1225=ORIENTED_EDGE('',*,*,#872,.T.);
#1226=ORIENTED_EDGE('',*,*,#873,.F.);
#1227=ORIENTED_EDGE('',*,*,#874,.F.);
#1228=ORIENTED_EDGE('',*,*,#875,.F.);
#1229=ORIENTED_EDGE('',*,*,#876,.T.);
#1230=ORIENTED_EDGE('',*,*,#877,.T.);
#1231=ORIENTED_EDGE('',*,*,#874,.T.);
#1232=ORIENTED_EDGE('',*,*,#878,.T.);
#1233=ORIENTED_EDGE('',*,*,#865,.T.);
#1234=ORIENTED_EDGE('',*,*,#879,.T.);
#1235=ORIENTED_EDGE('',*,*,#875,.T.);
#1236=ORIENTED_EDGE('',*,*,#880,.T.);
#1237=ORIENTED_EDGE('',*,*,#873,.T.);
#1238=ORIENTED_EDGE('',*,*,#881,.T.);
#1239=ORIENTED_EDGE('',*,*,#861,.T.);
#1240=ORIENTED_EDGE('',*,*,#882,.T.);
#1241=ORIENTED_EDGE('',*,*,#859,.T.);
#1242=ORIENTED_EDGE('',*,*,#883,.T.);
#1243=ORIENTED_EDGE('',*,*,#855,.T.);
#1244=ORIENTED_EDGE('',*,*,#884,.T.);
#1245=ORIENTED_EDGE('',*,*,#858,.F.);
#1246=ORIENTED_EDGE('',*,*,#872,.F.);
#1247=ORIENTED_EDGE('',*,*,#869,.F.);
#1248=ORIENTED_EDGE('',*,*,#885,.F.);
#1249=ORIENTED_EDGE('',*,*,#870,.F.);
#1250=ORIENTED_EDGE('',*,*,#880,.F.);
#1251=ORIENTED_EDGE('',*,*,#877,.F.);
#1252=ORIENTED_EDGE('',*,*,#886,.F.);
#1253=ORIENTED_EDGE('',*,*,#871,.F.);
#1254=ORIENTED_EDGE('',*,*,#883,.F.);
#1255=ORIENTED_EDGE('',*,*,#881,.F.);
#1256=ORIENTED_EDGE('',*,*,#879,.F.);
#1257=ORIENTED_EDGE('',*,*,#863,.F.);
#1258=ORIENTED_EDGE('',*,*,#887,.F.);
#1259=ORIENTED_EDGE('',*,*,#878,.F.);
#1260=ORIENTED_EDGE('',*,*,#882,.F.);
#1261=ORIENTED_EDGE('',*,*,#857,.F.);
#1262=ORIENTED_EDGE('',*,*,#888,.F.);
#1263=ORIENTED_EDGE('',*,*,#864,.F.);
#1264=ORIENTED_EDGE('',*,*,#884,.F.);
#1265=ORIENTED_EDGE('',*,*,#856,.F.);
#1266=ORIENTED_EDGE('',*,*,#885,.T.);
#1267=ORIENTED_EDGE('',*,*,#868,.F.);
#1268=ORIENTED_EDGE('',*,*,#886,.T.);
#1269=ORIENTED_EDGE('',*,*,#876,.F.);
#1270=ORIENTED_EDGE('',*,*,#887,.T.);
#1271=ORIENTED_EDGE('',*,*,#862,.F.);
#1272=ORIENTED_EDGE('',*,*,#888,.T.);
#1273=PLANE('',#1432);
#1274=PLANE('',#1433);
#1275=PLANE('',#1434);
#1276=PLANE('',#1435);
#1277=PLANE('',#1436);
#1278=PLANE('',#1437);
#1279=PLANE('',#1438);
#1280=PLANE('',#1439);
#1281=PLANE('',#1440);
#1282=PLANE('',#1441);
#1283=PLANE('',#1442);
#1284=PLANE('',#1443);
#1285=PLANE('',#1444);
#1286=PLANE('',#1445);
#1287=PLANE('',#1446);
#1288=PLANE('',#1447);
#1289=PLANE('',#1448);
#1290=PLANE('',#1449);
#1291=PLANE('',#1450);
#1292=PLANE('',#1451);
#1293=PLANE('',#1452);
#1294=PLANE('',#1453);
#1295=PLANE('',#1454);
#1296=PLANE('',#1455);
#1297=PLANE('',#1456);
#1298=PLANE('',#1457);
#1299=PLANE('',#1458);
#1300=PLANE('',#1459);
#1301=PLANE('',#1460);
#1302=PLANE('',#1464);
#1303=PLANE('',#1468);
#1304=PLANE('',#1469);
#1305=PLANE('',#1470);
#1306=PLANE('',#1471);
#1307=PLANE('',#1472);
#1308=PLANE('',#1473);
#1309=PLANE('',#1477);
#1310=PLANE('',#1481);
#1311=PLANE('',#1482);
#1312=PLANE('',#1483);
#1313=PLANE('',#1484);
#1314=PLANE('',#1485);
#1315=PLANE('',#1486);
#1316=PLANE('',#1490);
#1317=PLANE('',#1494);
#1318=PLANE('',#1495);
#1319=PLANE('',#1496);
#1320=PLANE('',#1497);
#1321=PLANE('',#1498);
#1322=PLANE('',#1499);
#1323=PLANE('',#1503);
#1324=PLANE('',#1507);
#1325=PLANE('',#1508);
#1326=PLANE('',#1509);
#1327=PLANE('',#1538);
#1328=PLANE('',#1539);
#1329=PLANE('',#1540);
#1330=PLANE('',#1541);
#1331=PLANE('',#1542);
#1332=PLANE('',#1543);
#1333=ADVANCED_FACE('',(#85),#1273,.T.);
#1334=ADVANCED_FACE('',(#86),#1274,.T.);
#1335=ADVANCED_FACE('',(#87),#1275,.T.);
#1336=ADVANCED_FACE('',(#88),#1276,.T.);
#1337=ADVANCED_FACE('',(#89),#1277,.T.);
#1338=ADVANCED_FACE('',(#90),#1278,.T.);
#1339=ADVANCED_FACE('',(#91),#1279,.T.);
#1340=ADVANCED_FACE('',(#92),#1280,.T.);
#1341=ADVANCED_FACE('',(#93),#1281,.T.);
#1342=ADVANCED_FACE('',(#94),#1282,.T.);
#1343=ADVANCED_FACE('',(#95),#1283,.T.);
#1344=ADVANCED_FACE('',(#96),#1284,.T.);
#1345=ADVANCED_FACE('',(#97),#1285,.T.);
#1346=ADVANCED_FACE('',(#98),#1286,.T.);
#1347=ADVANCED_FACE('',(#99),#1287,.T.);
#1348=ADVANCED_FACE('',(#100),#1288,.T.);
#1349=ADVANCED_FACE('',(#101),#1289,.T.);
#1350=ADVANCED_FACE('',(#102),#1290,.T.);
#1351=ADVANCED_FACE('',(#103),#1291,.T.);
#1352=ADVANCED_FACE('',(#104),#1292,.T.);
#1353=ADVANCED_FACE('',(#105),#1293,.T.);
#1354=ADVANCED_FACE('',(#106),#1294,.T.);
#1355=ADVANCED_FACE('',(#107),#1295,.T.);
#1356=ADVANCED_FACE('',(#108),#1296,.T.);
#1357=ADVANCED_FACE('',(#109),#1297,.T.);
#1358=ADVANCED_FACE('',(#110),#1298,.F.);
#1359=ADVANCED_FACE('',(#111),#1299,.T.);
#1360=ADVANCED_FACE('',(#112),#1300,.T.);
#1361=ADVANCED_FACE('',(#113),#1301,.T.);
#1362=ADVANCED_FACE('',(#114),#57,.F.);
#1363=ADVANCED_FACE('',(#115),#1302,.T.);
#1364=ADVANCED_FACE('',(#116),#58,.F.);
#1365=ADVANCED_FACE('',(#117),#1303,.T.);
#1366=ADVANCED_FACE('',(#118,#17),#1304,.F.);
#1367=ADVANCED_FACE('',(#119,#18),#1305,.T.);
#1368=ADVANCED_FACE('',(#120),#1306,.T.);
#1369=ADVANCED_FACE('',(#121),#1307,.T.);
#1370=ADVANCED_FACE('',(#122),#1308,.T.);
#1371=ADVANCED_FACE('',(#123),#59,.F.);
#1372=ADVANCED_FACE('',(#124),#1309,.T.);
#1373=ADVANCED_FACE('',(#125),#60,.F.);
#1374=ADVANCED_FACE('',(#126),#1310,.T.);
#1375=ADVANCED_FACE('',(#127,#19),#1311,.F.);
#1376=ADVANCED_FACE('',(#128,#20),#1312,.T.);
#1377=ADVANCED_FACE('',(#129),#1313,.T.);
#1378=ADVANCED_FACE('',(#130),#1314,.T.);
#1379=ADVANCED_FACE('',(#131),#1315,.T.);
#1380=ADVANCED_FACE('',(#132),#61,.F.);
#1381=ADVANCED_FACE('',(#133),#1316,.T.);
#1382=ADVANCED_FACE('',(#134),#62,.F.);
#1383=ADVANCED_FACE('',(#135),#1317,.T.);
#1384=ADVANCED_FACE('',(#136,#21),#1318,.F.);
#1385=ADVANCED_FACE('',(#137,#22),#1319,.T.);
#1386=ADVANCED_FACE('',(#138),#1320,.T.);
#1387=ADVANCED_FACE('',(#139),#1321,.T.);
#1388=ADVANCED_FACE('',(#140),#1322,.T.);
#1389=ADVANCED_FACE('',(#141),#63,.F.);
#1390=ADVANCED_FACE('',(#142),#1323,.T.);
#1391=ADVANCED_FACE('',(#143),#64,.F.);
#1392=ADVANCED_FACE('',(#144),#1324,.T.);
#1393=ADVANCED_FACE('',(#145,#23),#1325,.F.);
#1394=ADVANCED_FACE('',(#146,#24),#1326,.T.);
#1395=ADVANCED_FACE('',(#147),#13,.T.);
#1396=ADVANCED_FACE('',(#148),#65,.T.);
#1397=ADVANCED_FACE('',(#149),#14,.T.);
#1398=ADVANCED_FACE('',(#150),#66,.T.);
#1399=ADVANCED_FACE('',(#151),#15,.T.);
#1400=ADVANCED_FACE('',(#152),#67,.T.);
#1401=ADVANCED_FACE('',(#153),#68,.T.);
#1402=ADVANCED_FACE('',(#154),#16,.T.);
#1403=ADVANCED_FACE('',(#155),#69,.T.);
#1404=ADVANCED_FACE('',(#156),#70,.T.);
#1405=ADVANCED_FACE('',(#157),#71,.T.);
#1406=ADVANCED_FACE('',(#158),#72,.T.);
#1407=ADVANCED_FACE('',(#159),#1327,.T.);
#1408=ADVANCED_FACE('',(#160),#1328,.T.);
#1409=ADVANCED_FACE('',(#161),#1329,.T.);
#1410=ADVANCED_FACE('',(#162),#1330,.T.);
#1411=ADVANCED_FACE('',(#163),#1331,.T.);
#1412=ADVANCED_FACE('',(#164),#1332,.F.);
#1413=CLOSED_SHELL('',(#1333,#1334,#1335,#1336,#1337,#1338,#1339,#1340,
#1341,#1342,#1343,#1344,#1345,#1346,#1347,#1348,#1349,#1350,#1351,#1352,
#1353,#1354,#1355,#1356,#1357,#1358));
#1414=CLOSED_SHELL('',(#1359,#1360,#1361,#1362,#1363,#1364,#1365,#1366,
#1367));
#1415=CLOSED_SHELL('',(#1368,#1369,#1370,#1371,#1372,#1373,#1374,#1375,
#1376));
#1416=CLOSED_SHELL('',(#1377,#1378,#1379,#1380,#1381,#1382,#1383,#1384,
#1385));
#1417=CLOSED_SHELL('',(#1386,#1387,#1388,#1389,#1390,#1391,#1392,#1393,
#1394));
#1418=CLOSED_SHELL('',(#1395,#1396,#1397,#1398,#1399,#1400,#1401,#1402,
#1403,#1404,#1405,#1406,#1407,#1408,#1409,#1410,#1411,#1412));
#1419=DERIVED_UNIT_ELEMENT(#1421,1.);
#1420=DERIVED_UNIT_ELEMENT(#2332,-3.);
#1421=(
MASS_UNIT()
NAMED_UNIT(*)
SI_UNIT(.KILO.,.GRAM.)
);
#1422=DERIVED_UNIT((#1419,#1420));
#1423=MEASURE_REPRESENTATION_ITEM('density measure',
POSITIVE_RATIO_MEASURE(544.),#1422);
#1424=PROPERTY_DEFINITION_REPRESENTATION(#1429,#1426);
#1425=PROPERTY_DEFINITION_REPRESENTATION(#1430,#1427);
#1426=REPRESENTATION('material name',(#1428),#2329);
#1427=REPRESENTATION('density',(#1423),#2329);
#1428=DESCRIPTIVE_REPRESENTATION_ITEM('Cherry','Cherry');
#1429=PROPERTY_DEFINITION('material property','material name',#2339);
#1430=PROPERTY_DEFINITION('material property','density of part',#2339);
#1431=AXIS2_PLACEMENT_3D('',#1930,#1544,#1545);
#1432=AXIS2_PLACEMENT_3D('',#1931,#1546,#1547);
#1433=AXIS2_PLACEMENT_3D('',#1940,#1552,#1553);
#1434=AXIS2_PLACEMENT_3D('',#1946,#1557,#1558);
#1435=AXIS2_PLACEMENT_3D('',#1952,#1562,#1563);
#1436=AXIS2_PLACEMENT_3D('',#1958,#1567,#1568);
#1437=AXIS2_PLACEMENT_3D('',#1964,#1572,#1573);
#1438=AXIS2_PLACEMENT_3D('',#1970,#1577,#1578);
#1439=AXIS2_PLACEMENT_3D('',#1976,#1582,#1583);
#1440=AXIS2_PLACEMENT_3D('',#1982,#1587,#1588);
#1441=AXIS2_PLACEMENT_3D('',#1988,#1592,#1593);
#1442=AXIS2_PLACEMENT_3D('',#1994,#1597,#1598);
#1443=AXIS2_PLACEMENT_3D('',#2000,#1602,#1603);
#1444=AXIS2_PLACEMENT_3D('',#2006,#1607,#1608);
#1445=AXIS2_PLACEMENT_3D('',#2012,#1612,#1613);
#1446=AXIS2_PLACEMENT_3D('',#2018,#1617,#1618);
#1447=AXIS2_PLACEMENT_3D('',#2024,#1622,#1623);
#1448=AXIS2_PLACEMENT_3D('',#2030,#1627,#1628);
#1449=AXIS2_PLACEMENT_3D('',#2036,#1632,#1633);
#1450=AXIS2_PLACEMENT_3D('',#2042,#1637,#1638);
#1451=AXIS2_PLACEMENT_3D('',#2048,#1642,#1643);
#1452=AXIS2_PLACEMENT_3D('',#2054,#1647,#1648);
#1453=AXIS2_PLACEMENT_3D('',#2060,#1652,#1653);
#1454=AXIS2_PLACEMENT_3D('',#2066,#1657,#1658);
#1455=AXIS2_PLACEMENT_3D('',#2072,#1662,#1663);
#1456=AXIS2_PLACEMENT_3D('',#2075,#1666,#1667);
#1457=AXIS2_PLACEMENT_3D('',#2076,#1668,#1669);
#1458=AXIS2_PLACEMENT_3D('',#2077,#1670,#1671);
#1459=AXIS2_PLACEMENT_3D('',#2086,#1676,#1677);
#1460=AXIS2_PLACEMENT_3D('',#2092,#1681,#1682);
#1461=AXIS2_PLACEMENT_3D('',#2098,#1686,#1687);
#1462=AXIS2_PLACEMENT_3D('',#2100,#1688,#1689);
#1463=AXIS2_PLACEMENT_3D('',#2103,#1691,#1692);
#1464=AXIS2_PLACEMENT_3D('',#2104,#1693,#1694);
#1465=AXIS2_PLACEMENT_3D('',#2110,#1698,#1699);
#1466=AXIS2_PLACEMENT_3D('',#2112,#1700,#1701);
#1467=AXIS2_PLACEMENT_3D('',#2115,#1703,#1704);
#1468=AXIS2_PLACEMENT_3D('',#2116,#1705,#1706);
#1469=AXIS2_PLACEMENT_3D('',#2119,#1709,#1710);
#1470=AXIS2_PLACEMENT_3D('',#2120,#1711,#1712);
#1471=AXIS2_PLACEMENT_3D('',#2121,#1713,#1714);
#1472=AXIS2_PLACEMENT_3D('',#2130,#1719,#1720);
#1473=AXIS2_PLACEMENT_3D('',#2136,#1724,#1725);
#1474=AXIS2_PLACEMENT_3D('',#2142,#1729,#1730);
#1475=AXIS2_PLACEMENT_3D('',#2144,#1731,#1732);
#1476=AXIS2_PLACEMENT_3D('',#2147,#1734,#1735);
#1477=AXIS2_PLACEMENT_3D('',#2148,#1736,#1737);
#1478=AXIS2_PLACEMENT_3D('',#2154,#1741,#1742);
#1479=AXIS2_PLACEMENT_3D('',#2156,#1743,#1744);
#1480=AXIS2_PLACEMENT_3D('',#2159,#1746,#1747);
#1481=AXIS2_PLACEMENT_3D('',#2160,#1748,#1749);
#1482=AXIS2_PLACEMENT_3D('',#2163,#1752,#1753);
#1483=AXIS2_PLACEMENT_3D('',#2164,#1754,#1755);
#1484=AXIS2_PLACEMENT_3D('',#2165,#1756,#1757);
#1485=AXIS2_PLACEMENT_3D('',#2174,#1762,#1763);
#1486=AXIS2_PLACEMENT_3D('',#2180,#1767,#1768);
#1487=AXIS2_PLACEMENT_3D('',#2186,#1772,#1773);
#1488=AXIS2_PLACEMENT_3D('',#2188,#1774,#1775);
#1489=AXIS2_PLACEMENT_3D('',#2191,#1777,#1778);
#1490=AXIS2_PLACEMENT_3D('',#2192,#1779,#1780);
#1491=AXIS2_PLACEMENT_3D('',#2198,#1784,#1785);
#1492=AXIS2_PLACEMENT_3D('',#2200,#1786,#1787);
#1493=AXIS2_PLACEMENT_3D('',#2203,#1789,#1790);
#1494=AXIS2_PLACEMENT_3D('',#2204,#1791,#1792);
#1495=AXIS2_PLACEMENT_3D('',#2207,#1795,#1796);
#1496=AXIS2_PLACEMENT_3D('',#2208,#1797,#1798);
#1497=AXIS2_PLACEMENT_3D('',#2209,#1799,#1800);
#1498=AXIS2_PLACEMENT_3D('',#2218,#1805,#1806);
#1499=AXIS2_PLACEMENT_3D('',#2224,#1810,#1811);
#1500=AXIS2_PLACEMENT_3D('',#2230,#1815,#1816);
#1501=AXIS2_PLACEMENT_3D('',#2232,#1817,#1818);
#1502=AXIS2_PLACEMENT_3D('',#2235,#1820,#1821);
#1503=AXIS2_PLACEMENT_3D('',#2236,#1822,#1823);
#1504=AXIS2_PLACEMENT_3D('',#2242,#1827,#1828);
#1505=AXIS2_PLACEMENT_3D('',#2244,#1829,#1830);
#1506=AXIS2_PLACEMENT_3D('',#2247,#1832,#1833);
#1507=AXIS2_PLACEMENT_3D('',#2248,#1834,#1835);
#1508=AXIS2_PLACEMENT_3D('',#2251,#1838,#1839);
#1509=AXIS2_PLACEMENT_3D('',#2252,#1840,#1841);
#1510=AXIS2_PLACEMENT_3D('',#2253,#1842,#1843);
#1511=AXIS2_PLACEMENT_3D('',#2256,#1844,#1845);
#1512=AXIS2_PLACEMENT_3D('',#2258,#1846,#1847);
#1513=AXIS2_PLACEMENT_3D('',#2259,#1848,#1849);
#1514=AXIS2_PLACEMENT_3D('',#2260,#1850,#1851);
#1515=AXIS2_PLACEMENT_3D('',#2263,#1852,#1853);
#1516=AXIS2_PLACEMENT_3D('',#2266,#1856,#1857);
#1517=AXIS2_PLACEMENT_3D('',#2269,#1858,#1859);
#1518=AXIS2_PLACEMENT_3D('',#2271,#1860,#1861);
#1519=AXIS2_PLACEMENT_3D('',#2272,#1862,#1863);
#1520=AXIS2_PLACEMENT_3D('',#2273,#1864,#1865);
#1521=AXIS2_PLACEMENT_3D('',#2276,#1866,#1867);
#1522=AXIS2_PLACEMENT_3D('',#2279,#1870,#1871);
#1523=AXIS2_PLACEMENT_3D('',#2282,#1872,#1873);
#1524=AXIS2_PLACEMENT_3D('',#2284,#1874,#1875);
#1525=AXIS2_PLACEMENT_3D('',#2285,#1876,#1877);
#1526=AXIS2_PLACEMENT_3D('',#2286,#1878,#1879);
#1527=AXIS2_PLACEMENT_3D('',#2289,#1880,#1881);
#1528=AXIS2_PLACEMENT_3D('',#2292,#1884,#1885);
#1529=AXIS2_PLACEMENT_3D('',#2295,#1888,#1889);
#1530=AXIS2_PLACEMENT_3D('',#2298,#1890,#1891);
#1531=AXIS2_PLACEMENT_3D('',#2300,#1892,#1893);
#1532=AXIS2_PLACEMENT_3D('',#2301,#1894,#1895);
#1533=AXIS2_PLACEMENT_3D('',#2302,#1896,#1897);
#1534=AXIS2_PLACEMENT_3D('',#2305,#1898,#1899);
#1535=AXIS2_PLACEMENT_3D('',#2308,#1902,#1903);
#1536=AXIS2_PLACEMENT_3D('',#2311,#1906,#1907);
#1537=AXIS2_PLACEMENT_3D('',#2314,#1910,#1911);
#1538=AXIS2_PLACEMENT_3D('',#2317,#1914,#1915);
#1539=AXIS2_PLACEMENT_3D('',#2319,#1917,#1918);
#1540=AXIS2_PLACEMENT_3D('',#2321,#1920,#1921);
#1541=AXIS2_PLACEMENT_3D('',#2322,#1922,#1923);
#1542=AXIS2_PLACEMENT_3D('',#2324,#1925,#1926);
#1543=AXIS2_PLACEMENT_3D('',#2326,#1928,#1929);
#1544=DIRECTION('axis',(0.,0.,1.));
#1545=DIRECTION('refdir',(1.,0.,0.));
#1546=DIRECTION('center_axis',(-1.,0.,0.));
#1547=DIRECTION('ref_axis',(0.,-1.,0.));
#1548=DIRECTION('',(0.,1.,0.));
#1549=DIRECTION('',(0.,0.,1.));
#1550=DIRECTION('',(0.,-1.,0.));
#1551=DIRECTION('',(0.,0.,1.));
#1552=DIRECTION('center_axis',(0.,-1.,0.));
#1553=DIRECTION('ref_axis',(1.,0.,0.));
#1554=DIRECTION('',(-1.,0.,0.));
#1555=DIRECTION('',(1.,0.,0.));
#1556=DIRECTION('',(0.,0.,1.));
#1557=DIRECTION('center_axis',(1.,0.,0.));
#1558=DIRECTION('ref_axis',(0.,1.,0.));
#1559=DIRECTION('',(0.,-1.,0.));
#1560=DIRECTION('',(0.,1.,0.));
#1561=DIRECTION('',(0.,0.,1.));
#1562=DIRECTION('center_axis',(0.,-1.,0.));
#1563=DIRECTION('ref_axis',(1.,0.,0.));
#1564=DIRECTION('',(1.,0.,0.));
#1565=DIRECTION('',(1.,0.,0.));
#1566=DIRECTION('',(0.,0.,1.));
#1567=DIRECTION('center_axis',(-1.,0.,0.));
#1568=DIRECTION('ref_axis',(0.,-1.,0.));
#1569=DIRECTION('',(0.,1.,0.));
#1570=DIRECTION('',(0.,-1.,0.));
#1571=DIRECTION('',(0.,0.,1.));
#1572=DIRECTION('center_axis',(0.,-1.,0.));
#1573=DIRECTION('ref_axis',(1.,0.,0.));
#1574=DIRECTION('',(-1.,0.,0.));
#1575=DIRECTION('',(1.,0.,0.));
#1576=DIRECTION('',(0.,0.,1.));
#1577=DIRECTION('center_axis',(1.,0.,0.));
#1578=DIRECTION('ref_axis',(0.,1.,0.));
#1579=DIRECTION('',(0.,-1.,0.));
#1580=DIRECTION('',(0.,1.,0.));
#1581=DIRECTION('',(0.,0.,1.));
#1582=DIRECTION('center_axis',(0.,-1.,0.));
#1583=DIRECTION('ref_axis',(1.,0.,0.));
#1584=DIRECTION('',(1.,0.,0.));
#1585=DIRECTION('',(1.,0.,0.));
#1586=DIRECTION('',(0.,0.,1.));
#1587=DIRECTION('center_axis',(-1.,0.,0.));
#1588=DIRECTION('ref_axis',(0.,-1.,0.));
#1589=DIRECTION('',(0.,1.,0.));
#1590=DIRECTION('',(0.,-1.,0.));
#1591=DIRECTION('',(0.,0.,1.));
#1592=DIRECTION('center_axis',(0.,-1.,0.));
#1593=DIRECTION('ref_axis',(1.,0.,0.));
#1594=DIRECTION('',(-1.,0.,0.));
#1595=DIRECTION('',(1.,0.,0.));
#1596=DIRECTION('',(0.,0.,1.));
#1597=DIRECTION('center_axis',(1.,0.,0.));
#1598=DIRECTION('ref_axis',(0.,1.,0.));
#1599=DIRECTION('',(0.,-1.,0.));
#1600=DIRECTION('',(0.,1.,0.));
#1601=DIRECTION('',(0.,0.,1.));
#1602=DIRECTION('center_axis',(0.,-1.,0.));
#1603=DIRECTION('ref_axis',(1.,0.,0.));
#1604=DIRECTION('',(1.,0.,0.));
#1605=DIRECTION('',(1.,0.,0.));
#1606=DIRECTION('',(0.,0.,1.));
#1607=DIRECTION('center_axis',(-1.,0.,0.));
#1608=DIRECTION('ref_axis',(0.,-1.,0.));
#1609=DIRECTION('',(0.,-1.,0.));
#1610=DIRECTION('',(0.,-1.,0.));
#1611=DIRECTION('',(0.,0.,1.));
#1612=DIRECTION('center_axis',(9.8774290447078E-17,-1.,0.));
#1613=DIRECTION('ref_axis',(1.,9.8774290447078E-17,0.));
#1614=DIRECTION('',(-1.,-9.8774290447078E-17,0.));
#1615=DIRECTION('',(1.,9.8774290447078E-17,0.));
#1616=DIRECTION('',(0.,0.,1.));
#1617=DIRECTION('center_axis',(-1.,-6.12323399573677E-17,0.));
#1618=DIRECTION('ref_axis',(6.12323399573677E-17,-1.,0.));
#1619=DIRECTION('',(6.12323399573677E-17,-1.,0.));
#1620=DIRECTION('',(6.12323399573677E-17,-1.,0.));
#1621=DIRECTION('',(0.,0.,1.));
#1622=DIRECTION('center_axis',(0.,1.,0.));
#1623=DIRECTION('ref_axis',(-1.,0.,0.));
#1624=DIRECTION('',(-1.,0.,0.));
#1625=DIRECTION('',(-1.,0.,0.));
#1626=DIRECTION('',(0.,0.,1.));
#1627=DIRECTION('center_axis',(1.,0.,0.));
#1628=DIRECTION('ref_axis',(0.,1.,0.));
#1629=DIRECTION('',(0.,1.,0.));
#1630=DIRECTION('',(0.,1.,0.));
#1631=DIRECTION('',(0.,0.,1.));
#1632=DIRECTION('center_axis',(0.,1.,0.));
#1633=DIRECTION('ref_axis',(-1.,0.,0.));
#1634=DIRECTION('',(-1.,0.,0.));
#1635=DIRECTION('',(-1.,0.,0.));
#1636=DIRECTION('',(0.,0.,1.));
#1637=DIRECTION('center_axis',(-1.,0.,0.));
#1638=DIRECTION('ref_axis',(0.,-1.,0.));
#1639=DIRECTION('',(0.,-1.,0.));
#1640=DIRECTION('',(0.,-1.,0.));
#1641=DIRECTION('',(0.,0.,1.));
#1642=DIRECTION('center_axis',(0.,1.,0.));
#1643=DIRECTION('ref_axis',(-1.,0.,0.));
#1644=DIRECTION('',(-1.,0.,0.));
#1645=DIRECTION('',(-1.,0.,0.));
#1646=DIRECTION('',(0.,0.,1.));
#1647=DIRECTION('center_axis',(1.,0.,0.));
#1648=DIRECTION('ref_axis',(0.,1.,0.));
#1649=DIRECTION('',(0.,1.,0.));
#1650=DIRECTION('',(0.,1.,0.));
#1651=DIRECTION('',(0.,0.,1.));
#1652=DIRECTION('center_axis',(0.,-1.,0.));
#1653=DIRECTION('ref_axis',(1.,0.,0.));
#1654=DIRECTION('',(1.,0.,0.));
#1655=DIRECTION('',(1.,0.,0.));
#1656=DIRECTION('',(0.,0.,1.));
#1657=DIRECTION('center_axis',(1.,0.,0.));
#1658=DIRECTION('ref_axis',(0.,1.,0.));
#1659=DIRECTION('',(0.,1.,0.));
#1660=DIRECTION('',(0.,1.,0.));
#1661=DIRECTION('',(0.,0.,1.));
#1662=DIRECTION('center_axis',(0.,-1.,0.));
#1663=DIRECTION('ref_axis',(1.,0.,0.));
#1664=DIRECTION('',(1.,0.,0.));
#1665=DIRECTION('',(1.,0.,0.));
#1666=DIRECTION('center_axis',(0.,0.,1.));
#1667=DIRECTION('ref_axis',(1.,0.,0.));
#1668=DIRECTION('center_axis',(0.,0.,1.));
#1669=DIRECTION('ref_axis',(1.,0.,0.));
#1670=DIRECTION('center_axis',(-1.,0.,0.));
#1671=DIRECTION('ref_axis',(0.,-1.,0.));
#1672=DIRECTION('',(0.,1.,0.));
#1673=DIRECTION('',(0.,0.,1.));
#1674=DIRECTION('',(0.,-1.,0.));
#1675=DIRECTION('',(0.,0.,1.));
#1676=DIRECTION('center_axis',(0.,1.,0.));
#1677=DIRECTION('ref_axis',(-1.,0.,0.));
#1678=DIRECTION('',(1.,0.,0.));
#1679=DIRECTION('',(0.,0.,1.));
#1680=DIRECTION('',(-1.,0.,0.));
#1681=DIRECTION('center_axis',(1.,0.,0.));
#1682=DIRECTION('ref_axis',(0.,1.,0.));
#1683=DIRECTION('',(0.,-1.,0.));
#1684=DIRECTION('',(0.,0.,1.));
#1685=DIRECTION('',(0.,1.,0.));
#1686=DIRECTION('center_axis',(0.,0.,1.));
#1687=DIRECTION('ref_axis',(1.,0.,0.));
#1688=DIRECTION('center_axis',(0.,0.,1.));
#1689=DIRECTION('ref_axis',(1.,0.,0.));
#1690=DIRECTION('',(0.,0.,-1.));
#1691=DIRECTION('center_axis',(0.,0.,-1.));
#1692=DIRECTION('ref_axis',(1.,0.,0.));
#1693=DIRECTION('center_axis',(0.,-1.,0.));
#1694=DIRECTION('ref_axis',(1.,0.,0.));
#1695=DIRECTION('',(-1.,0.,0.));
#1696=DIRECTION('',(0.,0.,1.));
#1697=DIRECTION('',(1.,0.,0.));
#1698=DIRECTION('center_axis',(0.,0.,1.));
#1699=DIRECTION('ref_axis',(1.,0.,0.));
#1700=DIRECTION('center_axis',(0.,0.,1.));
#1701=DIRECTION('ref_axis',(1.,0.,0.));
#1702=DIRECTION('',(0.,0.,1.));
#1703=DIRECTION('center_axis',(0.,0.,1.));
#1704=DIRECTION('ref_axis',(1.,0.,0.));
#1705=DIRECTION('center_axis',(0.,-1.,0.));
#1706=DIRECTION('ref_axis',(1.,0.,0.));
#1707=DIRECTION('',(-1.,0.,0.));
#1708=DIRECTION('',(1.,0.,0.));
#1709=DIRECTION('center_axis',(0.,0.,1.));
#1710=DIRECTION('ref_axis',(1.,0.,0.));
#1711=DIRECTION('center_axis',(0.,0.,1.));
#1712=DIRECTION('ref_axis',(1.,0.,0.));
#1713=DIRECTION('center_axis',(-1.,0.,0.));
#1714=DIRECTION('ref_axis',(0.,-1.,0.));
#1715=DIRECTION('',(0.,1.,0.));
#1716=DIRECTION('',(0.,0.,1.));
#1717=DIRECTION('',(0.,-1.,0.));
#1718=DIRECTION('',(0.,0.,1.));
#1719=DIRECTION('center_axis',(0.,1.,0.));
#1720=DIRECTION('ref_axis',(-1.,0.,0.));
#1721=DIRECTION('',(1.,0.,0.));
#1722=DIRECTION('',(0.,0.,1.));
#1723=DIRECTION('',(-1.,0.,0.));
#1724=DIRECTION('center_axis',(1.,0.,0.));
#1725=DIRECTION('ref_axis',(0.,1.,0.));
#1726=DIRECTION('',(0.,-1.,0.));
#1727=DIRECTION('',(0.,0.,1.));
#1728=DIRECTION('',(0.,1.,0.));
#1729=DIRECTION('center_axis',(0.,0.,1.));
#1730=DIRECTION('ref_axis',(1.,0.,0.));
#1731=DIRECTION('center_axis',(0.,0.,1.));
#1732=DIRECTION('ref_axis',(1.,0.,0.));
#1733=DIRECTION('',(0.,0.,-1.));
#1734=DIRECTION('center_axis',(0.,0.,-1.));
#1735=DIRECTION('ref_axis',(1.,0.,0.));
#1736=DIRECTION('center_axis',(0.,-1.,0.));
#1737=DIRECTION('ref_axis',(1.,0.,0.));
#1738=DIRECTION('',(-1.,0.,0.));
#1739=DIRECTION('',(0.,0.,1.));
#1740=DIRECTION('',(1.,0.,0.));
#1741=DIRECTION('center_axis',(0.,0.,1.));
#1742=DIRECTION('ref_axis',(1.,0.,0.));
#1743=DIRECTION('center_axis',(0.,0.,1.));
#1744=DIRECTION('ref_axis',(1.,0.,0.));
#1745=DIRECTION('',(0.,0.,1.));
#1746=DIRECTION('center_axis',(0.,0.,1.));
#1747=DIRECTION('ref_axis',(1.,0.,0.));
#1748=DIRECTION('center_axis',(0.,-1.,0.));
#1749=DIRECTION('ref_axis',(1.,0.,0.));
#1750=DIRECTION('',(-1.,0.,0.));
#1751=DIRECTION('',(1.,0.,0.));
#1752=DIRECTION('center_axis',(0.,0.,1.));
#1753=DIRECTION('ref_axis',(1.,0.,0.));
#1754=DIRECTION('center_axis',(0.,0.,1.));
#1755=DIRECTION('ref_axis',(1.,0.,0.));
#1756=DIRECTION('center_axis',(-1.,0.,0.));
#1757=DIRECTION('ref_axis',(0.,-1.,0.));
#1758=DIRECTION('',(0.,1.,0.));
#1759=DIRECTION('',(0.,0.,1.));
#1760=DIRECTION('',(0.,-1.,0.));
#1761=DIRECTION('',(0.,0.,1.));
#1762=DIRECTION('center_axis',(0.,1.,0.));
#1763=DIRECTION('ref_axis',(-1.,0.,0.));
#1764=DIRECTION('',(1.,0.,0.));
#1765=DIRECTION('',(0.,0.,1.));
#1766=DIRECTION('',(-1.,0.,0.));
#1767=DIRECTION('center_axis',(1.,0.,0.));
#1768=DIRECTION('ref_axis',(0.,1.,0.));
#1769=DIRECTION('',(0.,-1.,0.));
#1770=DIRECTION('',(0.,0.,1.));
#1771=DIRECTION('',(0.,1.,0.));
#1772=DIRECTION('center_axis',(0.,0.,1.));
#1773=DIRECTION('ref_axis',(1.,0.,0.));
#1774=DIRECTION('center_axis',(0.,0.,1.));
#1775=DIRECTION('ref_axis',(1.,0.,0.));
#1776=DIRECTION('',(0.,0.,-1.));
#1777=DIRECTION('center_axis',(0.,0.,-1.));
#1778=DIRECTION('ref_axis',(1.,0.,0.));
#1779=DIRECTION('center_axis',(0.,-1.,0.));
#1780=DIRECTION('ref_axis',(1.,0.,0.));
#1781=DIRECTION('',(-1.,0.,0.));
#1782=DIRECTION('',(0.,0.,1.));
#1783=DIRECTION('',(1.,0.,0.));
#1784=DIRECTION('center_axis',(0.,0.,1.));
#1785=DIRECTION('ref_axis',(1.,0.,0.));
#1786=DIRECTION('center_axis',(0.,0.,1.));
#1787=DIRECTION('ref_axis',(1.,0.,0.));
#1788=DIRECTION('',(0.,0.,1.));
#1789=DIRECTION('center_axis',(0.,0.,1.));
#1790=DIRECTION('ref_axis',(1.,0.,0.));
#1791=DIRECTION('center_axis',(0.,-1.,0.));
#1792=DIRECTION('ref_axis',(1.,0.,0.));
#1793=DIRECTION('',(-1.,0.,0.));
#1794=DIRECTION('',(1.,0.,0.));
#1795=DIRECTION('center_axis',(0.,0.,1.));
#1796=DIRECTION('ref_axis',(1.,0.,0.));
#1797=DIRECTION('center_axis',(0.,0.,1.));
#1798=DIRECTION('ref_axis',(1.,0.,0.));
#1799=DIRECTION('center_axis',(1.,0.,0.));
#1800=DIRECTION('ref_axis',(0.,1.,0.));
#1801=DIRECTION('',(0.,-1.,0.));
#1802=DIRECTION('',(0.,0.,1.));
#1803=DIRECTION('',(0.,-1.,0.));
#1804=DIRECTION('',(0.,0.,1.));
#1805=DIRECTION('center_axis',(0.,-1.,0.));
#1806=DIRECTION('ref_axis',(1.,0.,0.));
#1807=DIRECTION('',(-1.,0.,0.));
#1808=DIRECTION('',(0.,0.,1.));
#1809=DIRECTION('',(-1.,0.,0.));
#1810=DIRECTION('center_axis',(-1.,0.,0.));
#1811=DIRECTION('ref_axis',(0.,-1.,0.));
#1812=DIRECTION('',(0.,1.,0.));
#1813=DIRECTION('',(0.,0.,1.));
#1814=DIRECTION('',(0.,1.,0.));
#1815=DIRECTION('center_axis',(0.,0.,1.));
#1816=DIRECTION('ref_axis',(1.,0.,0.));
#1817=DIRECTION('center_axis',(0.,0.,1.));
#1818=DIRECTION('ref_axis',(1.,0.,0.));
#1819=DIRECTION('',(0.,0.,-1.));
#1820=DIRECTION('center_axis',(0.,0.,-1.));
#1821=DIRECTION('ref_axis',(1.,0.,0.));
#1822=DIRECTION('center_axis',(0.,1.,0.));
#1823=DIRECTION('ref_axis',(-1.,0.,0.));
#1824=DIRECTION('',(1.,0.,0.));
#1825=DIRECTION('',(0.,0.,1.));
#1826=DIRECTION('',(1.,0.,0.));
#1827=DIRECTION('center_axis',(0.,0.,1.));
#1828=DIRECTION('ref_axis',(1.,0.,0.));
#1829=DIRECTION('center_axis',(0.,0.,1.));
#1830=DIRECTION('ref_axis',(1.,0.,0.));
#1831=DIRECTION('',(0.,0.,1.));
#1832=DIRECTION('center_axis',(0.,0.,1.));
#1833=DIRECTION('ref_axis',(1.,0.,0.));
#1834=DIRECTION('center_axis',(0.,1.,0.));
#1835=DIRECTION('ref_axis',(-1.,0.,0.));
#1836=DIRECTION('',(1.,0.,0.));
#1837=DIRECTION('',(1.,0.,0.));
#1838=DIRECTION('center_axis',(0.,0.,1.));
#1839=DIRECTION('ref_axis',(1.,0.,0.));
#1840=DIRECTION('center_axis',(0.,0.,1.));
#1841=DIRECTION('ref_axis',(1.,0.,0.));
#1842=DIRECTION('center_axis',(-0.408248290463852,-0.816496580927738,0.408248290463851));
#1843=DIRECTION('ref_axis',(-0.577350269189635,0.577350269189605,0.577350269189637));
#1844=DIRECTION('center_axis',(-1.,0.,0.));
#1845=DIRECTION('ref_axis',(0.,1.,0.));
#1846=DIRECTION('center_axis',(0.,0.,1.));
#1847=DIRECTION('ref_axis',(-1.,0.,0.));
#1848=DIRECTION('center_axis',(2.22044604925031E-14,1.,0.));
#1849=DIRECTION('ref_axis',(0.,0.,1.));
#1850=DIRECTION('center_axis',(0.,0.,1.));
#1851=DIRECTION('ref_axis',(-0.707106781186555,0.70710678118654,0.));
#1852=DIRECTION('center_axis',(0.,0.,1.));
#1853=DIRECTION('ref_axis',(-0.707106781186555,0.70710678118654,0.));
#1854=DIRECTION('',(0.,0.,1.));
#1855=DIRECTION('',(0.,0.,-1.));
#1856=DIRECTION('center_axis',(-0.816496580927727,0.408248290463864,-0.40824829046386));
#1857=DIRECTION('ref_axis',(-0.577350269189625,-0.577350269189626,0.577350269189626));
#1858=DIRECTION('center_axis',(0.,-1.,0.));
#1859=DIRECTION('ref_axis',(-1.,0.,0.));
#1860=DIRECTION('center_axis',(0.,0.,1.));
#1861=DIRECTION('ref_axis',(0.,-1.,0.));
#1862=DIRECTION('center_axis',(-1.,0.,0.));
#1863=DIRECTION('ref_axis',(0.,0.,1.));
#1864=DIRECTION('center_axis',(0.,0.,1.));
#1865=DIRECTION('ref_axis',(-0.707106781186548,-0.707106781186548,0.));
#1866=DIRECTION('center_axis',(0.,0.,1.));
#1867=DIRECTION('ref_axis',(-0.707106781186548,-0.707106781186548,0.));
#1868=DIRECTION('',(0.,0.,1.));
#1869=DIRECTION('',(0.,0.,-1.));
#1870=DIRECTION('center_axis',(0.40824829046386,-0.81649658092772,0.408248290463878));
#1871=DIRECTION('ref_axis',(0.577350269189604,0.577350269189639,0.577350269189635));
#1872=DIRECTION('center_axis',(0.,1.,0.));
#1873=DIRECTION('ref_axis',(1.,0.,0.));
#1874=DIRECTION('center_axis',(0.,0.,1.));
#1875=DIRECTION('ref_axis',(0.,1.,0.));
#1876=DIRECTION('center_axis',(1.,-2.22044604925031E-14,0.));
#1877=DIRECTION('ref_axis',(0.,0.,1.));
#1878=DIRECTION('center_axis',(0.,0.,1.));
#1879=DIRECTION('ref_axis',(0.707106781186532,0.707106781186563,0.));
#1880=DIRECTION('center_axis',(0.,0.,1.));
#1881=DIRECTION('ref_axis',(0.707106781186532,0.707106781186563,0.));
#1882=DIRECTION('',(0.,0.,1.));
#1883=DIRECTION('',(0.,0.,-1.));
#1884=DIRECTION('center_axis',(-1.,0.,0.));
#1885=DIRECTION('ref_axis',(0.,0.707106781186555,0.70710678118654));
#1886=DIRECTION('',(1.,0.,0.));
#1887=DIRECTION('',(-1.,0.,0.));
#1888=DIRECTION('center_axis',(-0.81649658092773,-0.408248290463861,0.408248290463856));
#1889=DIRECTION('ref_axis',(0.577350269189623,-0.577350269189632,0.577350269189623));
#1890=DIRECTION('center_axis',(1.,0.,0.));
#1891=DIRECTION('ref_axis',(0.,-1.,0.));
#1892=DIRECTION('center_axis',(0.,0.,1.));
#1893=DIRECTION('ref_axis',(1.,0.,0.));
#1894=DIRECTION('center_axis',(5.55111512312578E-15,-1.,0.));
#1895=DIRECTION('ref_axis',(0.,0.,1.));
#1896=DIRECTION('center_axis',(0.,0.,1.));
#1897=DIRECTION('ref_axis',(0.707106781186555,-0.70710678118654,0.));
#1898=DIRECTION('center_axis',(0.,0.,1.));
#1899=DIRECTION('ref_axis',(0.707106781186555,-0.70710678118654,0.));
#1900=DIRECTION('',(0.,0.,1.));
#1901=DIRECTION('',(0.,0.,-1.));
#1902=DIRECTION('center_axis',(0.,1.,0.));
#1903=DIRECTION('ref_axis',(0.707106781186555,0.,0.70710678118654));
#1904=DIRECTION('',(0.,-1.,0.));
#1905=DIRECTION('',(0.,1.,0.));
#1906=DIRECTION('center_axis',(1.,0.,0.));
#1907=DIRECTION('ref_axis',(0.,-0.707106781186548,0.707106781186548));
#1908=DIRECTION('',(-1.,0.,0.));
#1909=DIRECTION('',(1.,0.,0.));
#1910=DIRECTION('center_axis',(0.,-1.,0.));
#1911=DIRECTION('ref_axis',(-0.707106781186548,0.,0.707106781186548));
#1912=DIRECTION('',(0.,1.,0.));
#1913=DIRECTION('',(0.,-1.,0.));
#1914=DIRECTION('center_axis',(0.,1.,0.));
#1915=DIRECTION('ref_axis',(-1.,0.,0.));
#1916=DIRECTION('',(1.,0.,0.));
#1917=DIRECTION('center_axis',(1.,0.,0.));
#1918=DIRECTION('ref_axis',(0.,1.,0.));
#1919=DIRECTION('',(0.,-1.,0.));
#1920=DIRECTION('center_axis',(0.,0.,1.));
#1921=DIRECTION('ref_axis',(1.,0.,0.));
#1922=DIRECTION('center_axis',(0.,-1.,0.));
#1923=DIRECTION('ref_axis',(1.,0.,0.));
#1924=DIRECTION('',(-1.,0.,0.));
#1925=DIRECTION('center_axis',(-1.,0.,0.));
#1926=DIRECTION('ref_axis',(0.,-1.,0.));
#1927=DIRECTION('',(0.,1.,0.));
#1928=DIRECTION('center_axis',(0.,0.,1.));
#1929=DIRECTION('ref_axis',(1.,0.,0.));
#1930=CARTESIAN_POINT('',(0.,0.,0.));
#1931=CARTESIAN_POINT('Origin',(10.36,2.15,0.));
#1932=CARTESIAN_POINT('',(10.36,0.,0.));
#1933=CARTESIAN_POINT('',(10.36,2.15,0.));
#1934=CARTESIAN_POINT('',(10.36,0.,0.));
#1935=CARTESIAN_POINT('',(10.36,0.,1.2));
#1936=CARTESIAN_POINT('',(10.36,0.,0.));
#1937=CARTESIAN_POINT('',(10.36,2.15,1.2));
#1938=CARTESIAN_POINT('',(10.36,0.,1.2));
#1939=CARTESIAN_POINT('',(10.36,2.15,0.));
#1940=CARTESIAN_POINT('Origin',(8.84,2.15,0.));
#1941=CARTESIAN_POINT('',(8.84,2.15,0.));
#1942=CARTESIAN_POINT('',(10.36,2.15,0.));
#1943=CARTESIAN_POINT('',(8.84,2.15,1.2));
#1944=CARTESIAN_POINT('',(10.36,2.15,1.2));
#1945=CARTESIAN_POINT('',(8.84,2.15,0.));
#1946=CARTESIAN_POINT('Origin',(8.84,0.,0.));
#1947=CARTESIAN_POINT('',(8.84,0.,0.));
#1948=CARTESIAN_POINT('',(8.84,2.15,0.));
#1949=CARTESIAN_POINT('',(8.84,0.,1.2));
#1950=CARTESIAN_POINT('',(8.84,2.15,1.2));
#1951=CARTESIAN_POINT('',(8.84,0.,0.));
#1952=CARTESIAN_POINT('Origin',(7.82,0.,0.));
#1953=CARTESIAN_POINT('',(7.82,0.,0.));
#1954=CARTESIAN_POINT('',(2.81,0.,0.));
#1955=CARTESIAN_POINT('',(7.82,0.,1.2));
#1956=CARTESIAN_POINT('',(2.81,0.,1.2));
#1957=CARTESIAN_POINT('',(7.82,0.,0.));
#1958=CARTESIAN_POINT('Origin',(7.82,2.15,0.));
#1959=CARTESIAN_POINT('',(7.82,2.15,0.));
#1960=CARTESIAN_POINT('',(7.82,0.,0.));
#1961=CARTESIAN_POINT('',(7.82,2.15,1.2));
#1962=CARTESIAN_POINT('',(7.82,0.,1.2));
#1963=CARTESIAN_POINT('',(7.82,2.15,0.));
#1964=CARTESIAN_POINT('Origin',(6.3,2.15,0.));
#1965=CARTESIAN_POINT('',(6.3,2.15,0.));
#1966=CARTESIAN_POINT('',(7.82,2.15,0.));
#1967=CARTESIAN_POINT('',(6.3,2.15,1.2));
#1968=CARTESIAN_POINT('',(7.82,2.15,1.2));
#1969=CARTESIAN_POINT('',(6.3,2.15,0.));
#1970=CARTESIAN_POINT('Origin',(6.3,0.,0.));
#1971=CARTESIAN_POINT('',(6.3,0.,0.));
#1972=CARTESIAN_POINT('',(6.3,2.15,0.));
#1973=CARTESIAN_POINT('',(6.3,0.,1.2));
#1974=CARTESIAN_POINT('',(6.3,2.15,1.2));
#1975=CARTESIAN_POINT('',(6.3,0.,0.));
#1976=CARTESIAN_POINT('Origin',(5.28,0.,0.));
#1977=CARTESIAN_POINT('',(5.28,0.,0.));
#1978=CARTESIAN_POINT('',(2.81,0.,0.));
#1979=CARTESIAN_POINT('',(5.28,0.,1.2));
#1980=CARTESIAN_POINT('',(2.81,0.,1.2));
#1981=CARTESIAN_POINT('',(5.28,0.,0.));
#1982=CARTESIAN_POINT('Origin',(5.28,2.15,0.));
#1983=CARTESIAN_POINT('',(5.28,2.15,0.));
#1984=CARTESIAN_POINT('',(5.28,0.,0.));
#1985=CARTESIAN_POINT('',(5.28,2.15,1.2));
#1986=CARTESIAN_POINT('',(5.28,0.,1.2));
#1987=CARTESIAN_POINT('',(5.28,2.15,0.));
#1988=CARTESIAN_POINT('Origin',(3.76,2.15,0.));
#1989=CARTESIAN_POINT('',(3.76,2.15,0.));
#1990=CARTESIAN_POINT('',(5.28,2.15,0.));
#1991=CARTESIAN_POINT('',(3.76,2.15,1.2));
#1992=CARTESIAN_POINT('',(5.28,2.15,1.2));
#1993=CARTESIAN_POINT('',(3.76,2.15,0.));
#1994=CARTESIAN_POINT('Origin',(3.76,0.,0.));
#1995=CARTESIAN_POINT('',(3.76,0.,0.));
#1996=CARTESIAN_POINT('',(3.76,2.15,0.));
#1997=CARTESIAN_POINT('',(3.76,0.,1.2));
#1998=CARTESIAN_POINT('',(3.76,2.15,1.2));
#1999=CARTESIAN_POINT('',(3.76,0.,0.));
#2000=CARTESIAN_POINT('Origin',(2.81,0.,0.));
#2001=CARTESIAN_POINT('',(2.81,0.,0.));
#2002=CARTESIAN_POINT('',(2.81,0.,0.));
#2003=CARTESIAN_POINT('',(2.81,0.,1.2));
#2004=CARTESIAN_POINT('',(2.81,0.,1.2));
#2005=CARTESIAN_POINT('',(2.81,0.,0.));
#2006=CARTESIAN_POINT('Origin',(2.81,2.,0.));
#2007=CARTESIAN_POINT('',(2.81,2.,0.));
#2008=CARTESIAN_POINT('',(2.81,2.,0.));
#2009=CARTESIAN_POINT('',(2.81,2.,1.2));
#2010=CARTESIAN_POINT('',(2.81,2.,1.2));
#2011=CARTESIAN_POINT('',(2.81,2.,0.));
#2012=CARTESIAN_POINT('Origin',(0.,2.,0.));
#2013=CARTESIAN_POINT('',(0.,2.,0.));
#2014=CARTESIAN_POINT('',(2.81,2.,0.));
#2015=CARTESIAN_POINT('',(0.,2.,1.2));
#2016=CARTESIAN_POINT('',(2.81,2.,1.2));
#2017=CARTESIAN_POINT('',(0.,2.,0.));
#2018=CARTESIAN_POINT('Origin',(-8.98278427174584E-16,14.67,0.));
#2019=CARTESIAN_POINT('',(-8.98278427174584E-16,14.67,0.));
#2020=CARTESIAN_POINT('',(-8.98278427174584E-16,14.67,0.));
#2021=CARTESIAN_POINT('',(0.,14.67,1.2));
#2022=CARTESIAN_POINT('',(-8.98278427174584E-16,14.67,1.2));
#2023=CARTESIAN_POINT('',(-8.98278427174584E-16,14.67,0.));
#2024=CARTESIAN_POINT('Origin',(10.99,14.67,0.));
#2025=CARTESIAN_POINT('',(10.99,14.67,0.));
#2026=CARTESIAN_POINT('',(14.12,14.67,0.));
#2027=CARTESIAN_POINT('',(10.99,14.67,1.2));
#2028=CARTESIAN_POINT('',(14.12,14.67,1.2));
#2029=CARTESIAN_POINT('',(10.99,14.67,0.));
#2030=CARTESIAN_POINT('Origin',(10.99,12.85,0.));
#2031=CARTESIAN_POINT('',(10.99,12.85,0.));
#2032=CARTESIAN_POINT('',(10.99,12.85,0.));
#2033=CARTESIAN_POINT('',(10.99,12.85,1.2));
#2034=CARTESIAN_POINT('',(10.99,12.85,1.2));
#2035=CARTESIAN_POINT('',(10.99,12.85,0.));
#2036=CARTESIAN_POINT('Origin',(12.59,12.85,0.));
#2037=CARTESIAN_POINT('',(12.59,12.85,0.));
#2038=CARTESIAN_POINT('',(12.59,12.85,0.));
#2039=CARTESIAN_POINT('',(12.59,12.85,1.2));
#2040=CARTESIAN_POINT('',(12.59,12.85,1.2));
#2041=CARTESIAN_POINT('',(12.59,12.85,0.));
#2042=CARTESIAN_POINT('Origin',(12.59,14.67,0.));
#2043=CARTESIAN_POINT('',(12.59,14.67,0.));
#2044=CARTESIAN_POINT('',(12.59,14.67,0.));
#2045=CARTESIAN_POINT('',(12.59,14.67,1.2));
#2046=CARTESIAN_POINT('',(12.59,14.67,1.2));
#2047=CARTESIAN_POINT('',(12.59,14.67,0.));
#2048=CARTESIAN_POINT('Origin',(14.12,14.67,0.));
#2049=CARTESIAN_POINT('',(14.12,14.67,0.));
#2050=CARTESIAN_POINT('',(14.12,14.67,0.));
#2051=CARTESIAN_POINT('',(14.12,14.67,1.2));
#2052=CARTESIAN_POINT('',(14.12,14.67,1.2));
#2053=CARTESIAN_POINT('',(14.12,14.67,0.));
#2054=CARTESIAN_POINT('Origin',(14.12,2.,0.));
#2055=CARTESIAN_POINT('',(14.12,2.,0.));
#2056=CARTESIAN_POINT('',(14.12,0.,0.));
#2057=CARTESIAN_POINT('',(14.12,2.,1.2));
#2058=CARTESIAN_POINT('',(14.12,0.,1.2));
#2059=CARTESIAN_POINT('',(14.12,2.,0.));
#2060=CARTESIAN_POINT('Origin',(11.31,2.,0.));
#2061=CARTESIAN_POINT('',(11.31,2.,0.));
#2062=CARTESIAN_POINT('',(11.31,2.,0.));
#2063=CARTESIAN_POINT('',(11.31,2.,1.2));
#2064=CARTESIAN_POINT('',(11.31,2.,1.2));
#2065=CARTESIAN_POINT('',(11.31,2.,0.));
#2066=CARTESIAN_POINT('Origin',(11.31,0.,0.));
#2067=CARTESIAN_POINT('',(11.31,0.,0.));
#2068=CARTESIAN_POINT('',(11.31,0.,0.));
#2069=CARTESIAN_POINT('',(11.31,0.,1.2));
#2070=CARTESIAN_POINT('',(11.31,0.,1.2));
#2071=CARTESIAN_POINT('',(11.31,0.,0.));
#2072=CARTESIAN_POINT('Origin',(10.36,0.,0.));
#2073=CARTESIAN_POINT('',(2.81,0.,0.));
#2074=CARTESIAN_POINT('',(2.81,0.,1.2));
#2075=CARTESIAN_POINT('Origin',(7.06,7.335,1.2));
#2076=CARTESIAN_POINT('Origin',(7.06,7.335,0.));
#2077=CARTESIAN_POINT('Origin',(6.3,2.15,0.));
#2078=CARTESIAN_POINT('',(6.3,0.,1.2));
#2079=CARTESIAN_POINT('',(6.3,2.15,1.2));
#2080=CARTESIAN_POINT('',(6.3,4.7425,1.2));
#2081=CARTESIAN_POINT('',(6.3,2.15,0.));
#2082=CARTESIAN_POINT('',(6.3,2.15,0.));
#2083=CARTESIAN_POINT('',(6.3,0.,0.));
#2084=CARTESIAN_POINT('',(6.3,2.15,0.));
#2085=CARTESIAN_POINT('',(6.3,0.,0.));
#2086=CARTESIAN_POINT('Origin',(7.82,2.15,0.));
#2087=CARTESIAN_POINT('',(7.82,2.15,1.2));
#2088=CARTESIAN_POINT('',(7.9975,2.15,1.2));
#2089=CARTESIAN_POINT('',(7.82,2.15,0.));
#2090=CARTESIAN_POINT('',(7.82,2.15,0.));
#2091=CARTESIAN_POINT('',(7.82,2.15,0.));
#2092=CARTESIAN_POINT('Origin',(7.82,0.,0.));
#2093=CARTESIAN_POINT('',(7.82,0.,1.2));
#2094=CARTESIAN_POINT('',(7.82,3.6675,1.2));
#2095=CARTESIAN_POINT('',(7.82,0.,0.));
#2096=CARTESIAN_POINT('',(7.82,0.,0.));
#2097=CARTESIAN_POINT('',(7.82,0.,0.));
#2098=CARTESIAN_POINT('Origin',(7.06,1.125,0.));
#2099=CARTESIAN_POINT('',(6.685,1.125,1.2));
#2100=CARTESIAN_POINT('Origin',(7.06,1.125,1.2));
#2101=CARTESIAN_POINT('',(6.685,1.125,0.));
#2102=CARTESIAN_POINT('',(6.685,1.125,0.));
#2103=CARTESIAN_POINT('Origin',(7.06,1.125,0.));
#2104=CARTESIAN_POINT('Origin',(7.435,0.,0.));
#2105=CARTESIAN_POINT('',(7.435,0.,1.2));
#2106=CARTESIAN_POINT('',(7.805,0.,1.2));
#2107=CARTESIAN_POINT('',(7.435,0.,0.));
#2108=CARTESIAN_POINT('',(7.435,0.,0.));
#2109=CARTESIAN_POINT('',(6.3,0.,0.));
#2110=CARTESIAN_POINT('Origin',(7.06,0.,0.));
#2111=CARTESIAN_POINT('',(6.685,4.59242549680257E-17,1.2));
#2112=CARTESIAN_POINT('Origin',(7.06,0.,1.2));
#2113=CARTESIAN_POINT('',(6.685,4.59242549680257E-17,0.));
#2114=CARTESIAN_POINT('',(6.685,4.59242549680257E-17,0.));
#2115=CARTESIAN_POINT('Origin',(7.06,0.,0.));
#2116=CARTESIAN_POINT('Origin',(6.3,0.,0.));
#2117=CARTESIAN_POINT('',(7.2375,0.,1.2));
#2118=CARTESIAN_POINT('',(6.3,0.,0.));
#2119=CARTESIAN_POINT('Origin',(7.06,1.075,0.));
#2120=CARTESIAN_POINT('Origin',(8.175,7.335,1.2));
#2121=CARTESIAN_POINT('Origin',(8.84,2.15,0.));
#2122=CARTESIAN_POINT('',(8.84,0.,1.2));
#2123=CARTESIAN_POINT('',(8.84,2.15,1.2));
#2124=CARTESIAN_POINT('',(8.84,4.7425,1.2));
#2125=CARTESIAN_POINT('',(8.84,2.15,0.));
#2126=CARTESIAN_POINT('',(8.84,2.15,0.));
#2127=CARTESIAN_POINT('',(8.84,0.,0.));
#2128=CARTESIAN_POINT('',(8.84,2.15,0.));
#2129=CARTESIAN_POINT('',(8.84,0.,0.));
#2130=CARTESIAN_POINT('Origin',(10.36,2.15,0.));
#2131=CARTESIAN_POINT('',(10.36,2.15,1.2));
#2132=CARTESIAN_POINT('',(9.2675,2.15,1.2));
#2133=CARTESIAN_POINT('',(10.36,2.15,0.));
#2134=CARTESIAN_POINT('',(10.36,2.15,0.));
#2135=CARTESIAN_POINT('',(10.36,2.15,0.));
#2136=CARTESIAN_POINT('Origin',(10.36,0.,0.));
#2137=CARTESIAN_POINT('',(10.36,0.,1.2));
#2138=CARTESIAN_POINT('',(10.36,3.6675,1.2));
#2139=CARTESIAN_POINT('',(10.36,0.,0.));
#2140=CARTESIAN_POINT('',(10.36,0.,0.));
#2141=CARTESIAN_POINT('',(10.36,0.,0.));
#2142=CARTESIAN_POINT('Origin',(9.6,1.125,0.));
#2143=CARTESIAN_POINT('',(9.225,1.125,1.2));
#2144=CARTESIAN_POINT('Origin',(9.6,1.125,1.2));
#2145=CARTESIAN_POINT('',(9.225,1.125,0.));
#2146=CARTESIAN_POINT('',(9.225,1.125,0.));
#2147=CARTESIAN_POINT('Origin',(9.6,1.125,0.));
#2148=CARTESIAN_POINT('Origin',(9.975,0.,0.));
#2149=CARTESIAN_POINT('',(9.975,0.,1.2));
#2150=CARTESIAN_POINT('',(9.075,0.,1.2));
#2151=CARTESIAN_POINT('',(9.975,0.,0.));
#2152=CARTESIAN_POINT('',(9.975,0.,0.));
#2153=CARTESIAN_POINT('',(8.84,0.,0.));
#2154=CARTESIAN_POINT('Origin',(9.6,0.,0.));
#2155=CARTESIAN_POINT('',(9.225,4.59242549680257E-17,1.2));
#2156=CARTESIAN_POINT('Origin',(9.6,0.,1.2));
#2157=CARTESIAN_POINT('',(9.225,4.59242549680257E-17,0.));
#2158=CARTESIAN_POINT('',(9.225,4.59242549680257E-17,0.));
#2159=CARTESIAN_POINT('Origin',(9.6,0.,0.));
#2160=CARTESIAN_POINT('Origin',(8.84,0.,0.));
#2161=CARTESIAN_POINT('',(8.5075,0.,1.2));
#2162=CARTESIAN_POINT('',(8.84,0.,0.));
#2163=CARTESIAN_POINT('Origin',(9.6,1.075,0.));
#2164=CARTESIAN_POINT('Origin',(8.175,7.335,1.2));
#2165=CARTESIAN_POINT('Origin',(3.76,2.15,0.));
#2166=CARTESIAN_POINT('',(3.76,0.,1.2));
#2167=CARTESIAN_POINT('',(3.76,2.15,1.2));
#2168=CARTESIAN_POINT('',(3.76,4.7425,1.2));
#2169=CARTESIAN_POINT('',(3.76,2.15,0.));
#2170=CARTESIAN_POINT('',(3.76,2.15,0.));
#2171=CARTESIAN_POINT('',(3.76,0.,0.));
#2172=CARTESIAN_POINT('',(3.76,2.15,0.));
#2173=CARTESIAN_POINT('',(3.76,0.,0.));
#2174=CARTESIAN_POINT('Origin',(5.28,2.15,0.));
#2175=CARTESIAN_POINT('',(5.28,2.15,1.2));
#2176=CARTESIAN_POINT('',(6.7275,2.15,1.2));
#2177=CARTESIAN_POINT('',(5.28,2.15,0.));
#2178=CARTESIAN_POINT('',(5.28,2.15,0.));
#2179=CARTESIAN_POINT('',(5.28,2.15,0.));
#2180=CARTESIAN_POINT('Origin',(5.28,0.,0.));
#2181=CARTESIAN_POINT('',(5.28,0.,1.2));
#2182=CARTESIAN_POINT('',(5.28,3.6675,1.2));
#2183=CARTESIAN_POINT('',(5.28,0.,0.));
#2184=CARTESIAN_POINT('',(5.28,0.,0.));
#2185=CARTESIAN_POINT('',(5.28,0.,0.));
#2186=CARTESIAN_POINT('Origin',(4.52,1.125,0.));
#2187=CARTESIAN_POINT('',(4.145,1.125,1.2));
#2188=CARTESIAN_POINT('Origin',(4.52,1.125,1.2));
#2189=CARTESIAN_POINT('',(4.145,1.125,0.));
#2190=CARTESIAN_POINT('',(4.145,1.125,0.));
#2191=CARTESIAN_POINT('Origin',(4.52,1.125,0.));
#2192=CARTESIAN_POINT('Origin',(4.895,0.,0.));
#2193=CARTESIAN_POINT('',(4.895,0.,1.2));
#2194=CARTESIAN_POINT('',(6.535,0.,1.2));
#2195=CARTESIAN_POINT('',(4.895,0.,0.));
#2196=CARTESIAN_POINT('',(4.895,0.,0.));
#2197=CARTESIAN_POINT('',(3.76,0.,0.));
#2198=CARTESIAN_POINT('Origin',(4.52,0.,0.));
#2199=CARTESIAN_POINT('',(4.145,4.59242549680257E-17,1.2));
#2200=CARTESIAN_POINT('Origin',(4.52,0.,1.2));
#2201=CARTESIAN_POINT('',(4.145,4.59242549680257E-17,0.));
#2202=CARTESIAN_POINT('',(4.145,4.59242549680257E-17,0.));
#2203=CARTESIAN_POINT('Origin',(4.52,0.,0.));
#2204=CARTESIAN_POINT('Origin',(3.76,0.,0.));
#2205=CARTESIAN_POINT('',(5.9675,0.,1.2));
#2206=CARTESIAN_POINT('',(3.76,0.,0.));
#2207=CARTESIAN_POINT('Origin',(4.52,1.075,0.));
#2208=CARTESIAN_POINT('Origin',(8.175,7.335,1.2));
#2209=CARTESIAN_POINT('Origin',(12.59,12.85,0.));
#2210=CARTESIAN_POINT('',(12.59,14.67,1.2));
#2211=CARTESIAN_POINT('',(12.59,12.85,1.2));
#2212=CARTESIAN_POINT('',(12.59,10.0925,1.2));
#2213=CARTESIAN_POINT('',(12.59,12.85,0.));
#2214=CARTESIAN_POINT('',(12.59,12.85,0.));
#2215=CARTESIAN_POINT('',(12.59,14.67,0.));
#2216=CARTESIAN_POINT('',(12.59,14.67,0.));
#2217=CARTESIAN_POINT('',(12.59,14.67,0.));
#2218=CARTESIAN_POINT('Origin',(10.99,12.85,0.));
#2219=CARTESIAN_POINT('',(10.99,12.85,1.2));
#2220=CARTESIAN_POINT('',(9.5825,12.85,1.2));
#2221=CARTESIAN_POINT('',(10.99,12.85,0.));
#2222=CARTESIAN_POINT('',(10.99,12.85,0.));
#2223=CARTESIAN_POINT('',(12.59,12.85,0.));
#2224=CARTESIAN_POINT('Origin',(10.99,14.67,0.));
#2225=CARTESIAN_POINT('',(10.99,14.67,1.2));
#2226=CARTESIAN_POINT('',(10.99,11.0025,1.2));
#2227=CARTESIAN_POINT('',(10.99,14.67,0.));
#2228=CARTESIAN_POINT('',(10.99,14.67,0.));
#2229=CARTESIAN_POINT('',(10.99,12.85,0.));
#2230=CARTESIAN_POINT('Origin',(11.79,13.545,0.));
#2231=CARTESIAN_POINT('',(11.415,13.545,1.2));
#2232=CARTESIAN_POINT('Origin',(11.79,13.545,1.2));
#2233=CARTESIAN_POINT('',(11.415,13.545,0.));
#2234=CARTESIAN_POINT('',(11.415,13.545,0.));
#2235=CARTESIAN_POINT('Origin',(11.79,13.545,0.));
#2236=CARTESIAN_POINT('Origin',(11.415,14.67,0.));
#2237=CARTESIAN_POINT('',(11.415,14.67,1.2));
#2238=CARTESIAN_POINT('',(9.795,14.67,1.2));
#2239=CARTESIAN_POINT('',(11.415,14.67,0.));
#2240=CARTESIAN_POINT('',(11.415,14.67,0.));
#2241=CARTESIAN_POINT('',(10.99,14.67,0.));
#2242=CARTESIAN_POINT('Origin',(11.79,14.67,0.));
#2243=CARTESIAN_POINT('',(12.165,14.67,1.2));
#2244=CARTESIAN_POINT('Origin',(11.79,14.67,1.2));
#2245=CARTESIAN_POINT('',(12.165,14.67,0.));
#2246=CARTESIAN_POINT('',(12.165,14.67,0.));
#2247=CARTESIAN_POINT('Origin',(11.79,14.67,0.));
#2248=CARTESIAN_POINT('Origin',(12.59,14.67,0.));
#2249=CARTESIAN_POINT('',(10.3825,14.67,1.2));
#2250=CARTESIAN_POINT('',(10.99,14.67,0.));
#2251=CARTESIAN_POINT('Origin',(11.79,13.76,0.));
#2252=CARTESIAN_POINT('Origin',(8.175,7.335,1.2));
#2253=CARTESIAN_POINT('Origin',(0.499999999999999,12.35,2.3));
#2254=CARTESIAN_POINT('',(0.499999999999999,12.45,2.3));
#2255=CARTESIAN_POINT('',(0.499999999999999,12.35,2.4));
#2256=CARTESIAN_POINT('Origin',(0.499999999999999,12.35,2.3));
#2257=CARTESIAN_POINT('',(0.399999999999999,12.35,2.3));
#2258=CARTESIAN_POINT('Origin',(0.499999999999999,12.35,2.3));
#2259=CARTESIAN_POINT('Origin',(0.499999999999999,12.35,2.3));
#2260=CARTESIAN_POINT('Origin',(0.499999999999999,12.35,1.2));
#2261=CARTESIAN_POINT('',(0.499999999999999,12.45,1.2));
#2262=CARTESIAN_POINT('',(0.399999999999999,12.35,1.2));
#2263=CARTESIAN_POINT('Origin',(0.499999999999999,12.35,1.2));
#2264=CARTESIAN_POINT('',(0.399999999999999,12.35,1.2));
#2265=CARTESIAN_POINT('',(0.499999999999999,12.45,1.2));
#2266=CARTESIAN_POINT('Origin',(0.499999999999999,2.65,2.3));
#2267=CARTESIAN_POINT('',(0.399999999999999,2.65,2.3));
#2268=CARTESIAN_POINT('',(0.499999999999999,2.65,2.4));
#2269=CARTESIAN_POINT('Origin',(0.499999999999999,2.65,2.3));
#2270=CARTESIAN_POINT('',(0.499999999999999,2.55,2.3));
#2271=CARTESIAN_POINT('Origin',(0.499999999999999,2.65,2.3));
#2272=CARTESIAN_POINT('Origin',(0.499999999999999,2.65,2.3));
#2273=CARTESIAN_POINT('Origin',(0.499999999999999,2.65,1.2));
#2274=CARTESIAN_POINT('',(0.399999999999999,2.65,1.2));
#2275=CARTESIAN_POINT('',(0.499999999999999,2.55,1.2));
#2276=CARTESIAN_POINT('Origin',(0.499999999999999,2.65,1.2));
#2277=CARTESIAN_POINT('',(0.499999999999999,2.55,1.2));
#2278=CARTESIAN_POINT('',(0.399999999999999,2.65,1.2));
#2279=CARTESIAN_POINT('Origin',(13.62,12.35,2.3));
#2280=CARTESIAN_POINT('',(13.72,12.35,2.3));
#2281=CARTESIAN_POINT('',(13.62,12.35,2.4));
#2282=CARTESIAN_POINT('Origin',(13.62,12.35,2.3));
#2283=CARTESIAN_POINT('',(13.62,12.45,2.3));
#2284=CARTESIAN_POINT('Origin',(13.62,12.35,2.3));
#2285=CARTESIAN_POINT('Origin',(13.62,12.35,2.3));
#2286=CARTESIAN_POINT('Origin',(13.62,12.35,1.2));
#2287=CARTESIAN_POINT('',(13.72,12.35,1.2));
#2288=CARTESIAN_POINT('',(13.62,12.45,1.2));
#2289=CARTESIAN_POINT('Origin',(13.62,12.35,1.2));
#2290=CARTESIAN_POINT('',(13.62,12.45,1.2));
#2291=CARTESIAN_POINT('',(13.72,12.35,1.2));
#2292=CARTESIAN_POINT('Origin',(10.39,12.35,2.3));
#2293=CARTESIAN_POINT('',(10.39,12.35,2.4));
#2294=CARTESIAN_POINT('',(10.39,12.45,2.3));
#2295=CARTESIAN_POINT('Origin',(13.62,2.65,2.3));
#2296=CARTESIAN_POINT('',(13.62,2.55,2.3));
#2297=CARTESIAN_POINT('',(13.62,2.65,2.4));
#2298=CARTESIAN_POINT('Origin',(13.62,2.65,2.3));
#2299=CARTESIAN_POINT('',(13.72,2.65,2.3));
#2300=CARTESIAN_POINT('Origin',(13.62,2.65,2.3));
#2301=CARTESIAN_POINT('Origin',(13.62,2.65,2.3));
#2302=CARTESIAN_POINT('Origin',(13.62,2.65,1.2));
#2303=CARTESIAN_POINT('',(13.62,2.55,1.2));
#2304=CARTESIAN_POINT('',(13.72,2.65,1.2));
#2305=CARTESIAN_POINT('Origin',(13.62,2.65,1.2));
#2306=CARTESIAN_POINT('',(13.72,2.65,1.2));
#2307=CARTESIAN_POINT('',(13.62,2.55,1.2));
#2308=CARTESIAN_POINT('Origin',(13.62,5.025,2.3));
#2309=CARTESIAN_POINT('',(13.62,5.025,2.4));
#2310=CARTESIAN_POINT('',(13.72,5.025,2.3));
#2311=CARTESIAN_POINT('Origin',(3.73,2.65,2.3));
#2312=CARTESIAN_POINT('',(3.73,2.65,2.4));
#2313=CARTESIAN_POINT('',(3.73,2.55,2.3));
#2314=CARTESIAN_POINT('Origin',(0.499999999999999,9.975,2.3));
#2315=CARTESIAN_POINT('',(0.499999999999999,9.975,2.4));
#2316=CARTESIAN_POINT('',(0.399999999999999,9.975,2.3));
#2317=CARTESIAN_POINT('Origin',(13.72,12.45,1.2));
#2318=CARTESIAN_POINT('',(10.39,12.45,1.2));
#2319=CARTESIAN_POINT('Origin',(13.72,2.55,1.2));
#2320=CARTESIAN_POINT('',(13.72,5.025,1.2));
#2321=CARTESIAN_POINT('Origin',(7.06,7.5,2.4));
#2322=CARTESIAN_POINT('Origin',(0.399999999999999,2.55,1.2));
#2323=CARTESIAN_POINT('',(3.73,2.55,1.2));
#2324=CARTESIAN_POINT('Origin',(0.399999999999999,12.45,1.2));
#2325=CARTESIAN_POINT('',(0.399999999999999,9.975,1.2));
#2326=CARTESIAN_POINT('Origin',(7.06,7.5,1.2));
#2327=UNCERTAINTY_MEASURE_WITH_UNIT(LENGTH_MEASURE(0.01),#2331,
'DISTANCE_ACCURACY_VALUE',
'Maximum model space distance between geometric entities at asserted c
onnectivities');
#2328=UNCERTAINTY_MEASURE_WITH_UNIT(LENGTH_MEASURE(0.01),#2331,
'DISTANCE_ACCURACY_VALUE',
'Maximum model space distance between geometric entities at asserted c
onnectivities');
#2329=(
GEOMETRIC_REPRESENTATION_CONTEXT(3)
GLOBAL_UNCERTAINTY_ASSIGNED_CONTEXT((#2327))
GLOBAL_UNIT_ASSIGNED_CONTEXT((#2331,#2333,#2334))
REPRESENTATION_CONTEXT('','3D')
);
#2330=(
GEOMETRIC_REPRESENTATION_CONTEXT(3)
GLOBAL_UNCERTAINTY_ASSIGNED_CONTEXT((#2328))
GLOBAL_UNIT_ASSIGNED_CONTEXT((#2331,#2333,#2334))
REPRESENTATION_CONTEXT('','3D')
);
#2331=(
LENGTH_UNIT()
NAMED_UNIT(*)
SI_UNIT(.MILLI.,.METRE.)
);
#2332=(
LENGTH_UNIT()
NAMED_UNIT(*)
SI_UNIT($,.METRE.)
);
#2333=(
NAMED_UNIT(*)
PLANE_ANGLE_UNIT()
SI_UNIT($,.RADIAN.)
);
#2334=(
NAMED_UNIT(*)
SI_UNIT($,.STERADIAN.)
SOLID_ANGLE_UNIT()
);
#2335=SHAPE_DEFINITION_REPRESENTATION(#2336,#2337);
#2336=PRODUCT_DEFINITION_SHAPE('',$,#2339);
#2337=SHAPE_REPRESENTATION('',(#1431),#2329);
#2338=PRODUCT_DEFINITION_CONTEXT('part definition',#2343,'design');
#2339=PRODUCT_DEFINITION('STX883Pro','STX883Pro v1',#2340,#2338);
#2340=PRODUCT_DEFINITION_FORMATION('',$,#2345);
#2341=PRODUCT_RELATED_PRODUCT_CATEGORY('STX883Pro v1','STX883Pro v1',(#2345));
#2342=APPLICATION_PROTOCOL_DEFINITION('international standard',
'automotive_design',2009,#2343);
#2343=APPLICATION_CONTEXT(
'Core Data for Automotive Mechanical Design Process');
#2344=PRODUCT_CONTEXT('part definition',#2343,'mechanical');
#2345=PRODUCT('STX883Pro','STX883Pro v1',$,(#2344));
#2346=PRESENTATION_STYLE_ASSIGNMENT((#2350));
#2347=PRESENTATION_STYLE_ASSIGNMENT((#2351));
#2348=PRESENTATION_STYLE_ASSIGNMENT((#2352));
#2349=PRESENTATION_STYLE_ASSIGNMENT((#2353));
#2350=SURFACE_STYLE_USAGE(.BOTH.,#2354);
#2351=SURFACE_STYLE_USAGE(.BOTH.,#2355);
#2352=SURFACE_STYLE_USAGE(.BOTH.,#2356);
#2353=SURFACE_STYLE_USAGE(.BOTH.,#2357);
#2354=SURFACE_SIDE_STYLE('',(#2358));
#2355=SURFACE_SIDE_STYLE('',(#2359));
#2356=SURFACE_SIDE_STYLE('',(#2360));
#2357=SURFACE_SIDE_STYLE('',(#2361));
#2358=SURFACE_STYLE_FILL_AREA(#2362);
#2359=SURFACE_STYLE_FILL_AREA(#2363);
#2360=SURFACE_STYLE_FILL_AREA(#2364);
#2361=SURFACE_STYLE_FILL_AREA(#2365);
#2362=FILL_AREA_STYLE('Cherry',(#2366));
#2363=FILL_AREA_STYLE('FR4',(#2367));
#2364=FILL_AREA_STYLE('Gold - Polished',(#2368));
#2365=FILL_AREA_STYLE('Aluminum - Satin',(#2369));
#2366=FILL_AREA_STYLE_COLOUR('Cherry',#2370);
#2367=FILL_AREA_STYLE_COLOUR('FR4',#2371);
#2368=FILL_AREA_STYLE_COLOUR('Gold - Polished',#2372);
#2369=FILL_AREA_STYLE_COLOUR('Aluminum - Satin',#2373);
#2370=COLOUR_RGB('Cherry',0.,0.,0.);
#2371=COLOUR_RGB('FR4',0.266666666666667,0.466666666666667,0.4);
#2372=COLOUR_RGB('Gold - Polished',0.956862745098039,0.898039215686275,
0.654901960784314);
#2373=COLOUR_RGB('Aluminum - Satin',0.96078431372549,0.96078431372549,0.964705882352941);
ENDSEC;
END-ISO-10303-21;
